<?xml version="1.0" encoding="UTF-8" standalone="no"?>
<svg width="31px" height="31px" viewBox="0 0 31 31" version="1.1" xmlns="http://www.w3.org/2000/svg" xmlns:xlink="http://www.w3.org/1999/xlink" xmlns:sketch="http://www.bohemiancoding.com/sketch/ns">
    <!-- Generator: Sketch 3.2.2 (9983) - http://www.bohemiancoding.com/sketch -->
    <title>arrow-up-icon</title>
    <desc>Created with Sketch.</desc>
    <defs></defs>
    <g id="Page-1" stroke="none" stroke-width="1" fill="none" fill-rule="evenodd" sketch:type="MSPage">
        <g id="arrow-up-icon" sketch:type="MSLayerGroup" fill="#FFFFFF">
            <path d="M15.1,0.1 C6.8,0.1 0.1,6.8 0.1,15.1 C0.1,23.4 6.8,30.1 15.1,30.1 C23.4,30.1 30.1,23.4 30.1,15.1 C30.1,6.8 23.3,0.1 15.1,0.1 L15.1,0.1 Z M15.1,28.1 C7.9,28.1 2.1,22.3 2.1,15.1 C2.1,7.9 7.9,2.1 15.1,2.1 C22.3,2.1 28.1,7.9 28.1,15.1 C28.1,22.2 22.2,28.1 15.1,28.1 L15.1,28.1 Z" id="Shape" sketch:type="MSShapeGroup"></path>
            <path d="M16,10.2 C15.7,10 15.4,9.8 15.1,9.8 C14.8,9.8 14.4,9.9 14.2,10.2 L5.9,18.2 C5.4,18.7 5.4,19.5 5.9,19.9 C6.4,20.3 7.2,20.4 7.7,19.9 L15.1,12.8 L22.5,19.9 C23,20.4 23.8,20.4 24.3,19.9 C24.8,19.4 24.8,18.6 24.3,18.2 L16,10.2 L16,10.2 Z" id="Shape" sketch:type="MSShapeGroup"></path>
        </g>
    </g>
</svg>