<?xml version="1.0" encoding="UTF-8" standalone="no"?>
<svg width="40px" height="40px" viewBox="0 0 40 40" version="1.1" xmlns="http://www.w3.org/2000/svg" xmlns:xlink="http://www.w3.org/1999/xlink" xmlns:sketch="http://www.bohemiancoding.com/sketch/ns">
    <!-- Generator: Sketch 3.2.2 (9983) - http://www.bohemiancoding.com/sketch -->
    <title>close-icon-old</title>
    <desc>Created with Sketch.</desc>
    <defs></defs>
    <g id="Page-1" stroke="none" stroke-width="1" fill="none" fill-rule="evenodd" sketch:type="MSPage">
        <g id="close-icon-old" sketch:type="MSLayerGroup" fill="#FFFFFF">
            <path d="M40,20 C40,31 31,40 20,40 C9,40 0,31 0,20 C0,9 9,0 20,0 C31,0 40,9 40,20 L40,20 Z M36.1,20 C36.1,11.1 28.9,3.9 20,3.9 C11.1,3.9 3.9,11.1 3.9,20 C3.9,28.9 11.1,36.1 20,36.1 C28.9,36.1 36.1,28.9 36.1,20 L36.1,20 Z M26.7,30.3 L20.2,23.8 L13.7,30.3 L10.2,26.8 L16.7,20.3 L10.2,13.8 L13.7,10.3 L20.2,16.8 L26.7,10.3 L30.2,13.8 L23.7,20.3 L30.2,26.8 L26.7,30.3 L26.7,30.3 Z" id="x-mark-4-icon" sketch:type="MSShapeGroup"></path>
        </g>
    </g>
</svg>