<?xml version="1.0" encoding="utf-8"?>
<!-- Generator: Adobe Illustrator 18.1.0, SVG Export Plug-In . SVG Version: 6.00 Build 0)  -->
<svg version="1.1" id="Layer_1" xmlns="http://www.w3.org/2000/svg" xmlns:xlink="http://www.w3.org/1999/xlink" x="0px" y="0px"
	 viewBox="0 0 14 29.9" enable-background="new 0 0 14 29.9" xml:space="preserve">
<g id="_x23_020201ff">
	<path fill="#FFFFFF" d="M4.6,1.5C5.7,0.4,7.5,0,9,0c1.6,0,3.4,0,5,0c0,1.7,0,3.5,0,5.2c-1.1,0-2.1,0-3.2,0c-0.6,0-1.4,0.5-1.5,1.1
		c0,1.1,0,2.4,0,3.5c1.6,0,3.1,0,4.8,0c-0.1,1.8-0.4,3.4-0.6,5c-1.4,0-2.8,0-4.1,0c0,5,0,10,0,15c-2.1,0-4.1,0-6.2,0c0-5,0-10,0-15
		c-1,0-2,0-3,0c0-1.6,0-3.4,0-5C1,10,2,10,3,10c0-1.6,0-3.2,0-4.9C3.1,3.8,3.6,2.5,4.6,1.5z"/>
</g>
</svg>
