<?xml version="1.0" encoding="UTF-8" standalone="no"?>
<svg width="24px" height="24px" viewBox="0 0 24 24" version="1.1" xmlns="http://www.w3.org/2000/svg" xmlns:xlink="http://www.w3.org/1999/xlink" xmlns:sketch="http://www.bohemiancoding.com/sketch/ns">
    <!-- Generator: Sketch 3.2.2 (9983) - http://www.bohemiancoding.com/sketch -->
    <title>gear</title>
    <desc>Created with Sketch.</desc>
    <defs></defs>
    <g id="Page-1" stroke="none" stroke-width="1" fill="none" fill-rule="evenodd" sketch:type="MSPage">
        <g id="gear" sketch:type="MSLayerGroup" fill="#FFFFFF">
            <path d="M24,13.616 L24,10.384 L21.131,9.364 C20.933,8.677 20.659,8.022 20.32,7.409 L21.628,4.658 L19.343,2.373 L16.592,3.68 C15.979,3.341 15.323,3.067 14.637,2.869 L13.616,0 L10.384,0 L9.364,2.869 C8.677,3.067 8.022,3.34 7.409,3.68 L4.657,2.372 L2.372,4.657 L3.68,7.409 C3.34,8.022 3.067,8.677 2.869,9.364 L0,10.384 L0,13.616 L2.869,14.637 C3.067,15.324 3.341,15.978 3.68,16.592 L2.372,19.344 L4.657,21.627 L7.408,20.32 C8.021,20.658 8.676,20.931 9.363,21.131 L10.384,24 L13.616,24 L14.637,21.131 C15.324,20.934 15.979,20.658 16.592,20.32 L19.343,21.627 L21.628,19.344 L20.32,16.592 C20.659,15.979 20.933,15.323 21.131,14.637 L24,13.616 L24,13.616 Z M12,16.4 C9.569,16.4 7.599,14.43 7.599,12 C7.599,9.57 9.569,7.599 12,7.599 C14.431,7.599 16.4,9.569 16.4,12 C16.4,14.431 14.431,16.4 12,16.4 L12,16.4 L12,16.4 Z" id="gear-5-icon" sketch:type="MSShapeGroup"></path>
        </g>
    </g>
</svg>