<?xml version="1.0" encoding="UTF-8" standalone="no"?>
<svg width="29px" height="25px" viewBox="0 0 29 25" version="1.1" xmlns="http://www.w3.org/2000/svg" xmlns:xlink="http://www.w3.org/1999/xlink" xmlns:sketch="http://www.bohemiancoding.com/sketch/ns">
    <!-- Generator: Sketch 3.2.2 (9983) - http://www.bohemiancoding.com/sketch -->
    <title>google-plus</title>
    <desc>Created with Sketch.</desc>
    <defs></defs>
    <g id="Page-1" stroke="none" stroke-width="1" fill="none" fill-rule="evenodd" sketch:type="MSPage">
        <g id="google-plus" sketch:type="MSLayerGroup" fill="#FFFFFF">
            <g id="Group" sketch:type="MSShapeGroup">
                <path d="M12.4,1.5 C13.1,2.1 14.7,3.4 14.7,5.8 C14.7,8.2 13.3,9.3 12,10.3 C11.6,10.7 11.1,11.2 11.1,11.9 C11.1,12.6 11.6,13 11.9,13.3 L13.1,14.2 C14.5,15.4 15.8,16.5 15.8,18.7 C15.8,21.7 12.9,24.7 7.3,24.7 C2.6,24.7 0.3,22.5 0.3,20.2 C0.3,19.1 0.9,17.4 2.8,16.3 C4.8,15.1 7.5,14.9 9,14.8 C8.5,14.2 8,13.6 8,12.6 C8,12.1 8.2,11.7 8.3,11.4 C7.9,11.4 7.6,11.5 7.3,11.5 C3.9,11.5 1.9,9 1.9,6.5 C1.9,5 2.6,3.4 4,2.2 C5.8,0.7 8.1,0.5 9.8,0.5 L16.5,0.5 L14.4,1.6 L12.4,1.6 L12.4,1.5 L12.4,1.5 Z M10.1,15.7 L9.4,15.7 C9.1,15.7 7.4,15.8 6,16.2 C5.3,16.5 3.2,17.2 3.2,19.5 C3.2,21.8 5.4,23.4 8.9,23.4 C12,23.4 13.7,21.9 13.7,20 C13.7,18.2 12.6,17.4 10.1,15.7 L10.1,15.7 Z M11.1,9.6 C11.8,8.9 11.9,7.9 11.9,7.3 C11.9,5 10.5,1.4 7.8,1.4 C7,1.4 6.1,1.8 5.5,2.4 C5,3.1 4.8,4 4.8,4.8 C4.8,6.9 6.1,10.5 8.9,10.5 C9.7,10.5 10.6,10.1 11.1,9.6 L11.1,9.6 Z" id="Shape"></path>
                <path d="M28.6,5.3 L23.7,5.3 L23.7,0.4 L22.6,0.4 L22.6,5.3 L17.5,5.3 L17.5,6.4 L22.6,6.4 L22.6,11.6 L23.7,11.6 L23.7,6.4 L28.6,6.4 L28.6,5.3 Z" id="Shape"></path>
            </g>
        </g>
    </g>
</svg>