<?xml version="1.0" encoding="UTF-8" standalone="no"?>
<svg width="24px" height="23px" viewBox="0 0 24 23" version="1.1" xmlns="http://www.w3.org/2000/svg" xmlns:xlink="http://www.w3.org/1999/xlink" xmlns:sketch="http://www.bohemiancoding.com/sketch/ns">
    <!-- Generator: Sketch 3.2.2 (9983) - http://www.bohemiancoding.com/sketch -->
    <title>linkedin</title>
    <desc>Created with Sketch.</desc>
    <defs></defs>
    <g id="Page-1" stroke="none" stroke-width="1" fill="none" fill-rule="evenodd" sketch:type="MSPage">
        <g id="linkedin" sketch:type="MSLayerGroup" fill="#FFFFFF">
            <path d="M18.1,7.1 C15.4,7.1 14.2,8.6 13.5,9.7 L13.5,9.8 C13.5,9.8 13.5,9.8 13.5,9.7 L13.5,7.5 L8.3,7.5 C8.4,8.9 8.3,23 8.3,23 L13.4,23 L13.4,14.4 C13.4,13.9 13.4,13.5 13.6,13.1 C14,12.2 14.8,11.2 16.2,11.2 C18.1,11.2 18.8,12.6 18.8,14.7 L18.8,23 L24,23 L24,14.1 C24,9.3 21.4,7.1 18.1,7.1 L18.1,7.1 Z" id="Shape" sketch:type="MSShapeGroup"></path>
            <path d="M2.9,0 C1.2,0 0,1.2 0,2.7 C0,4.2 1.1,5.4 2.8,5.4 L2.8,5.4 C4.6,5.4 5.7,4.2 5.7,2.7 C5.7,1.2 4.7,0 2.9,0 L2.9,0 Z" id="Shape" sketch:type="MSShapeGroup"></path>
            <rect id="Rectangle-path" sketch:type="MSShapeGroup" x="0.3" y="7.5" width="5.1" height="15.5"></rect>
        </g>
    </g>
</svg>