<?xml version="1.0" encoding="UTF-8" standalone="no"?>
<svg width="360px" height="184px" viewBox="0 0 360 184" version="1.1" xmlns="http://www.w3.org/2000/svg" xmlns:xlink="http://www.w3.org/1999/xlink" xmlns:sketch="http://www.bohemiancoding.com/sketch/ns">
    <!-- Generator: Sketch 3.2.2 (9983) - http://www.bohemiancoding.com/sketch -->
    <title>logo-colored-old</title>
    <desc>Created with Sketch.</desc>
    <defs></defs>
    <g id="Page-1" stroke="none" stroke-width="1" fill="none" fill-rule="evenodd" sketch:type="MSPage">
        <g id="logo-colored-old" sketch:type="MSLayerGroup">
            <g id="Group" transform="translate(267.378641, 34.171429)" fill="#002D62" sketch:type="MSShapeGroup">
                <path d="M9.61165049,47.6647619 C7.0776699,47.6647619 4.89320388,46.8761905 3.40776699,45.3866667 C0.699029126,42.5828571 0.174757282,39.9542857 0.174757282,23.92 C0.174757282,7.88571429 0.699029126,5.25714286 3.40776699,2.45333333 C4.80582524,0.963809524 7.0776699,0.175238095 9.61165049,0.175238095 C12.3203883,0.175238095 14.3300971,1.05142857 15.815534,2.54095238 C17.6504854,4.46857143 18.4368932,7.36 18.4368932,10.7771429 L15.815534,10.7771429 C15.815534,6.65904762 14.592233,2.54095238 9.61165049,2.54095238 C7.68932039,2.54095238 6.2038835,3.15428571 5.24271845,4.20571429 C3.14563107,6.48380952 2.7961165,8.49904762 2.7961165,23.92 C2.7961165,39.3409524 3.14563107,41.3561905 5.24271845,43.6342857 C6.2038835,44.6857143 7.68932039,45.2990476 9.61165049,45.2990476 C13.0194175,45.2990476 15.815534,42.8457143 15.815534,38.0266667 L15.815534,25.1466667 L9.61165049,25.1466667 L9.61165049,22.7809524 L18.3495146,22.7809524 L18.3495146,38.2019048 C18.4368932,44.5980952 14.1553398,47.6647619 9.61165049,47.6647619 L9.61165049,47.6647619 Z" id="Shape"></path>
                <path d="M41.592233,45.3866667 C40.1941748,46.8761905 37.9223301,47.6647619 35.3883495,47.6647619 C32.8543689,47.6647619 30.6699029,46.8761905 29.184466,45.3866667 C26.4757282,42.5828571 25.9514563,39.9542857 25.9514563,23.92 C25.9514563,7.88571429 26.4757282,5.25714286 29.184466,2.45333333 C30.5825243,0.963809524 32.8543689,0.175238095 35.3883495,0.175238095 C37.9223301,0.175238095 40.1067961,0.963809524 41.592233,2.45333333 C44.3009709,5.25714286 44.8252427,7.88571429 44.8252427,23.92 C44.8252427,40.0419048 44.3009709,42.5828571 41.592233,45.3866667 L41.592233,45.3866667 Z M39.7572816,4.20571429 C38.7961165,3.15428571 37.3106796,2.54095238 35.3883495,2.54095238 C33.4660194,2.54095238 31.9805825,3.15428571 31.0194175,4.20571429 C28.9223301,6.48380952 28.5728155,8.49904762 28.5728155,23.92 C28.5728155,39.3409524 28.9223301,41.3561905 31.0194175,43.6342857 C31.9805825,44.6857143 33.4660194,45.2990476 35.3883495,45.2990476 C37.3106796,45.2990476 38.7961165,44.6857143 39.7572816,43.6342857 C41.8543689,41.3561905 42.2038835,39.3409524 42.2038835,23.92 C42.2038835,8.49904762 41.8543689,6.48380952 39.7572816,4.20571429 L39.7572816,4.20571429 Z" id="Shape"></path>
                <path d="M53.3009709,47.1390476 L53.3009709,0.700952381 L55.9223301,0.700952381 L55.9223301,44.7733333 L68.2427184,44.7733333 L68.2427184,47.1390476 L53.3009709,47.1390476 L53.3009709,47.1390476 Z" id="Shape"></path>
                <path d="M89.1262136,44.9485714 C87.7281553,46.3504762 85.5436893,47.1390476 83.0097087,47.1390476 L74.2718447,47.1390476 L74.2718447,0.700952381 L83.0097087,0.700952381 C85.5436893,0.700952381 87.7281553,1.48952381 89.1262136,2.89142857 C91.8349515,5.6952381 92.2718447,8.06095238 92.2718447,23.92 C92.3592233,39.7790476 91.9223301,42.1447619 89.1262136,44.9485714 L89.1262136,44.9485714 Z M87.2038835,4.64380952 C86.2427184,3.68 84.7572816,3.15428571 82.8349515,3.15428571 L76.8932039,3.15428571 L76.8932039,44.8609524 L82.8349515,44.8609524 C84.7572816,44.8609524 86.2427184,44.3352381 87.2038835,43.3714286 C89.3883495,41.1809524 89.7378641,39.1657143 89.7378641,24.007619 C89.7378641,8.84952381 89.3883495,6.83428571 87.2038835,4.64380952 L87.2038835,4.64380952 Z" id="Shape"></path>
            </g>
            <g id="Group" transform="translate(0.000000, 34.171429)" fill="#002D62" sketch:type="MSShapeGroup">
                <path d="M8.21359223,25.76 L2.62135922,25.76 L2.62135922,47.1390476 L0,47.1390476 L0,0.700952381 L8.21359223,0.700952381 C12.7572816,0.700952381 17.5631068,1.92761905 17.5631068,13.2304762 C17.5631068,23.1314286 13.9805825,25.76 8.21359223,25.76 L8.21359223,25.76 Z M8.38834951,3.06666667 L2.62135922,3.06666667 L2.62135922,23.3942857 L8.38834951,23.3942857 C13.2815534,23.3942857 14.9417476,19.9771429 14.9417476,13.2304762 C14.9417476,6.39619048 13.2815534,3.06666667 8.38834951,3.06666667 L8.38834951,3.06666667 Z" id="Shape"></path>
                <path d="M25.5145631,47.1390476 L25.5145631,0.700952381 L28.1359223,0.700952381 L28.1359223,47.1390476 L25.5145631,47.1390476 L25.5145631,47.1390476 Z" id="Shape"></path>
                <path d="M45.6116505,25.76 L40.0194175,25.76 L40.0194175,47.1390476 L37.3980583,47.1390476 L37.3980583,0.700952381 L45.6116505,0.700952381 C50.1553398,0.700952381 54.961165,1.92761905 54.961165,13.2304762 C54.961165,23.1314286 51.4660194,25.76 45.6116505,25.76 L45.6116505,25.76 Z M45.8737864,3.06666667 L40.1067961,3.06666667 L40.1067961,23.3942857 L45.8737864,23.3942857 C50.7669903,23.3942857 52.4271845,19.9771429 52.4271845,13.2304762 C52.4271845,6.39619048 50.6796117,3.06666667 45.8737864,3.06666667 L45.8737864,3.06666667 Z" id="Shape"></path>
                <path d="M62.9126214,47.1390476 L62.9126214,0.700952381 L77.8543689,0.700952381 L77.8543689,3.06666667 L65.5339806,3.06666667 L65.5339806,22.7809524 L76.1941748,22.7809524 L76.1941748,25.1466667 L65.5339806,25.1466667 L65.5339806,44.8609524 L77.8543689,44.8609524 L77.8543689,47.2266667 L62.9126214,47.2266667 L62.9126214,47.1390476 Z" id="Shape"></path>
                <path d="M101.970874,47.1390476 L94.9805825,25.672381 L88.3398058,25.672381 L88.3398058,47.1390476 L85.7184466,47.1390476 L85.7184466,0.700952381 L93.9320388,0.700952381 C98.4757282,0.700952381 103.281553,1.92761905 103.281553,13.2304762 C103.281553,20.9409524 101.097087,24.1828571 97.4271845,25.3219048 L104.76699,47.1390476 L101.970874,47.1390476 L101.970874,47.1390476 Z M94.1941748,3.06666667 L88.4271845,3.06666667 L88.4271845,23.3942857 L94.1941748,23.3942857 C99.0873786,23.3942857 100.747573,19.9771429 100.747573,13.2304762 C100.747573,6.39619048 99.0873786,3.06666667 94.1941748,3.06666667 L94.1941748,3.06666667 Z" id="Shape"></path>
            </g>
            <path d="M192.320388,33.6457143 C194.854369,33.6457143 197.038835,35.8361905 197.038835,38.3771429 L197.038835,39.0780952 C197.038835,39.0780952 203.941748,33.8209524 203.941748,23.832381 C203.941748,11.4780952 193.281553,2.27809524 174.320388,2.27809524 C158.067961,2.27809524 147.932039,11.4780952 147.932039,33.207619 C147.932039,50.5561905 155.883495,60.72 174.320388,60.72 L174.320388,62.3847619 L166.019417,62.3847619 C150.815534,62.3847619 138.23301,77.9809524 138.23301,99.1847619 C138.23301,121.089524 152.475728,139.051429 180.524272,139.051429 C209.970874,139.051429 231.640777,126.346667 231.640777,102.251429 C231.640777,91.7371429 224.213592,76.9295238 205.07767,76.9295238 C182.359223,76.9295238 173.970874,88.32 173.970874,97.432381 C173.970874,108.297143 183.145631,111.013333 183.145631,111.013333 C182.621359,110.312381 182.271845,109.173333 182.271845,108.121905 C182.271845,105.580952 184.456311,103.390476 186.990291,103.390476 C189.524272,103.390476 191.708738,105.580952 191.708738,108.121905 C191.708738,110.662857 189.524272,112.853333 186.990291,112.853333 C178.864078,112.853333 172.398058,106.194286 172.398058,97.432381 C172.398058,59.4057143 243.174757,73.512381 243.174757,46.1752381 C243.174757,37.6761905 238.456311,27.687619 228.145631,27.687619 C222.029126,27.687619 216.61165,31.6304762 216.61165,37.8514286 C216.61165,42.232381 218.097087,43.9847619 218.097087,43.9847619 C218.097087,41.2685714 220.281553,39.0780952 222.815534,39.0780952 C225.349515,39.0780952 227.533981,41.2685714 227.533981,43.8095238 C227.533981,46.3504762 225.174757,48.3657143 222.640777,48.3657143 C218.446602,48.3657143 215.038835,43.9847619 215.038835,37.8514286 C215.038835,30.9295238 220.631068,26.4609524 228.23301,26.4609524 C239.242718,26.4609524 245.009709,35.4857143 245.009709,46.3504762 C245.009709,61.9466667 232.165049,73.8628571 213.203883,76.4038095 C225.087379,79.6457143 233.475728,89.9847619 233.475728,102.339048 C233.475728,125.558095 213.203883,140.71619 180.524272,140.71619 C147.84466,140.71619 127.048544,121.527619 127.048544,98.6590476 C127.048544,73.8628571 145.485437,61.1580952 161.737864,61.1580952 L161.737864,60.807619 C154.31068,60.807619 136.834951,52.3085714 136.834951,32.7695238 C136.834951,8.67428571 157.805825,0.876190476 174.407767,0.876190476 C192.145631,0.876190476 205.68932,9.0247619 205.68932,23.92 C205.68932,33.2952381 199.223301,43.1085714 192.669903,43.1085714 C189.61165,43.1085714 187.776699,40.9180952 187.776699,38.3771429 C187.601942,35.8361905 189.786408,33.6457143 192.320388,33.6457143 L192.320388,33.6457143 Z" id="Shape" fill="#B51A8A" sketch:type="MSShapeGroup"></path>
            <g id="Group" transform="translate(110.970874, 166.476190)" fill="#002D62" sketch:type="MSShapeGroup">
                <path d="M2.88349515,9.2 L0.873786408,9.2 L0.873786408,16.647619 L0,16.647619 L0,0.525714286 L2.88349515,0.525714286 C4.45631068,0.525714286 6.11650485,0.963809524 6.11650485,4.90666667 C6.11650485,8.32380952 4.89320388,9.2 2.88349515,9.2 L2.88349515,9.2 Z M2.88349515,1.31428571 L0.873786408,1.31428571 L0.873786408,8.41142857 L2.88349515,8.41142857 C4.54368932,8.41142857 5.15533981,7.27238095 5.15533981,4.90666667 C5.15533981,2.54095238 4.63106796,1.31428571 2.88349515,1.31428571 L2.88349515,1.31428571 Z" id="Shape"></path>
                <path d="M15.5533981,15.9466667 C15.0291262,16.472381 14.1553398,16.8228571 13.368932,16.8228571 C12.5825243,16.8228571 11.7961165,16.56 11.184466,15.9466667 C10.6601942,15.4209524 10.3106796,14.5447619 10.3106796,13.4933333 L10.3106796,0.525714286 L11.184466,0.525714286 L11.184466,13.5809524 C11.184466,15.0704762 12.1456311,15.9466667 13.368932,15.9466667 C14.592233,15.9466667 15.5533981,14.9828571 15.5533981,13.5809524 L15.5533981,0.525714286 L16.4271845,0.525714286 L16.4271845,13.4933333 C16.4271845,14.632381 16.0776699,15.4209524 15.5533981,15.9466667 L15.5533981,15.9466667 Z" id="Shape"></path>
                <path d="M26.3009709,15.7714286 C25.6893204,16.472381 24.9029126,16.647619 23.6796117,16.647619 L21.2330097,16.647619 L21.2330097,0.525714286 L23.6796117,0.525714286 C24.9029126,0.525714286 25.6019417,0.788571429 26.2135922,1.40190476 C26.9126214,2.10285714 27.0873786,2.89142857 27.0873786,4.55619048 C27.0873786,5.6952381 26.9126214,6.74666667 26.1262136,7.5352381 C25.776699,7.88571429 25.4271845,8.06095238 25.0776699,8.23619048 C25.5145631,8.32380952 25.9514563,8.58666667 26.3009709,8.84952381 C27.2621359,9.81333333 27.3495146,10.952381 27.3495146,12.1790476 C27.3495146,14.2819048 27,15.0704762 26.3009709,15.7714286 L26.3009709,15.7714286 Z M23.8543689,1.31428571 L22.1067961,1.31428571 L22.1067961,7.88571429 L23.8543689,7.88571429 C25.3398058,7.88571429 26.2135922,6.92190476 26.2135922,4.64380952 C26.2135922,2.0152381 25.3398058,1.31428571 23.8543689,1.31428571 L23.8543689,1.31428571 Z M23.8543689,8.76190476 L22.1067961,8.76190476 L22.1067961,15.8590476 L23.8543689,15.8590476 C25.4271845,15.8590476 26.3883495,15.1580952 26.3883495,12.2666667 C26.3883495,9.72571429 25.4271845,8.76190476 23.8543689,8.76190476 L23.8543689,8.76190476 Z" id="Shape"></path>
                <path d="M31.8932039,16.647619 L31.8932039,0.525714286 L32.7669903,0.525714286 L32.7669903,15.8590476 L37.0485437,15.8590476 L37.0485437,16.647619 L31.8932039,16.647619 L31.8932039,16.647619 Z" id="Shape"></path>
                <path d="M40.8932039,16.647619 L40.8932039,0.525714286 L41.7669903,0.525714286 L41.7669903,16.647619 L40.8932039,16.647619 L40.8932039,16.647619 Z" id="Shape"></path>
                <path d="M51.6407767,16.1219048 C51.2038835,16.56 50.5048544,16.8228571 49.631068,16.8228571 C48.7572816,16.8228571 47.9708738,16.56 47.4466019,16.0342857 C46.4854369,15.0704762 46.3106796,14.1942857 46.3106796,8.58666667 C46.3106796,2.97904762 46.4854369,2.10285714 47.4466019,1.13904762 C47.9708738,0.613333333 48.6699029,0.35047619 49.631068,0.35047619 C50.592233,0.35047619 51.2912621,0.613333333 51.7281553,1.13904762 C52.3398058,1.84 52.6893204,2.89142857 52.6893204,4.03047619 L51.815534,4.03047619 C51.815534,3.15428571 51.6407767,2.27809524 51.1165049,1.6647619 C50.7669903,1.31428571 50.3300971,1.13904762 49.7184466,1.13904762 C49.0194175,1.13904762 48.5825243,1.31428571 48.2330097,1.6647619 C47.5339806,2.45333333 47.3592233,3.15428571 47.3592233,8.49904762 C47.3592233,13.8438095 47.5339806,14.5447619 48.2330097,15.3333333 C48.5825243,15.6838095 49.1067961,15.8590476 49.7184466,15.8590476 C50.3300971,15.8590476 50.8543689,15.6838095 51.1165049,15.3333333 C51.6407767,14.807619 51.815534,13.8438095 51.815534,12.967619 L52.6893204,12.967619 C52.6893204,14.3695238 52.4271845,15.5085714 51.6407767,16.1219048 L51.6407767,16.1219048 Z" id="Shape"></path>
                <path d="M68.8543689,16.647619 L66.407767,9.2 L64.1359223,9.2 L64.1359223,16.647619 L63.2621359,16.647619 L63.2621359,0.525714286 L66.1456311,0.525714286 C67.7184466,0.525714286 69.3786408,0.963809524 69.3786408,4.90666667 C69.3786408,7.5352381 68.592233,8.67428571 67.368932,9.11238095 L69.9029126,16.647619 L68.8543689,16.647619 L68.8543689,16.647619 Z M66.1456311,1.31428571 L64.1359223,1.31428571 L64.1359223,8.41142857 L66.1456311,8.41142857 C67.8058252,8.41142857 68.4174757,7.27238095 68.4174757,4.90666667 C68.4174757,2.54095238 67.8058252,1.31428571 66.1456311,1.31428571 L66.1456311,1.31428571 Z" id="Shape"></path>
                <path d="M74.2718447,16.647619 L74.2718447,0.525714286 L79.4271845,0.525714286 L79.4271845,1.31428571 L75.1456311,1.31428571 L75.1456311,8.14857143 L78.815534,8.14857143 L78.815534,8.93714286 L75.1456311,8.93714286 L75.1456311,15.7714286 L79.4271845,15.7714286 L79.4271845,16.56 L74.2718447,16.56 L74.2718447,16.647619 Z" id="Shape"></path>
                <path d="M83.9708738,16.647619 L83.9708738,0.525714286 L84.8446602,0.525714286 L84.8446602,15.8590476 L89.1262136,15.8590476 L89.1262136,16.647619 L83.9708738,16.647619 L83.9708738,16.647619 Z" id="Shape"></path>
                <path d="M98.7378641,16.647619 L97.776699,11.8285714 L94.0194175,11.8285714 L93.0582524,16.647619 L92.0970874,16.647619 L95.592233,0.525714286 L96.3786408,0.525714286 L99.7864078,16.647619 L98.7378641,16.647619 L98.7378641,16.647619 Z M95.9417476,2.36571429 L94.2815534,10.952381 L97.6893204,10.952381 L95.9417476,2.36571429 L95.9417476,2.36571429 Z" id="Shape"></path>
                <path d="M105.029126,1.31428571 L105.029126,16.647619 L104.15534,16.647619 L104.15534,1.31428571 L101.446602,1.31428571 L101.446602,0.525714286 L107.737864,0.525714286 L107.737864,1.31428571 L105.029126,1.31428571 L105.029126,1.31428571 Z" id="Shape"></path>
                <path d="M111.582524,16.647619 L111.582524,0.525714286 L112.456311,0.525714286 L112.456311,16.647619 L111.582524,16.647619 L111.582524,16.647619 Z" id="Shape"></path>
                <path d="M122.504854,16.0342857 C121.980583,16.56 121.281553,16.8228571 120.320388,16.8228571 C119.446602,16.8228571 118.660194,16.56 118.135922,16.0342857 C117.174757,15.0704762 117,14.1942857 117,8.58666667 C117,2.97904762 117.174757,2.10285714 118.135922,1.13904762 C118.660194,0.613333333 119.359223,0.35047619 120.320388,0.35047619 C121.194175,0.35047619 121.980583,0.613333333 122.504854,1.13904762 C123.466019,2.10285714 123.640777,2.97904762 123.640777,8.58666667 C123.640777,14.1942857 123.466019,15.0704762 122.504854,16.0342857 L122.504854,16.0342857 Z M121.893204,1.75238095 C121.543689,1.40190476 121.019417,1.22666667 120.407767,1.22666667 C119.708738,1.22666667 119.271845,1.40190476 118.92233,1.75238095 C118.223301,2.54095238 118.048544,3.24190476 118.048544,8.58666667 C118.048544,13.9314286 118.223301,14.632381 118.92233,15.4209524 C119.271845,15.7714286 119.796117,15.9466667 120.407767,15.9466667 C121.019417,15.9466667 121.543689,15.7714286 121.893204,15.4209524 C122.592233,14.632381 122.76699,13.9314286 122.76699,8.58666667 C122.76699,3.24190476 122.592233,2.54095238 121.893204,1.75238095 L121.893204,1.75238095 Z" id="Shape"></path>
                <path d="M133.864078,16.647619 L129.145631,3.06666667 L129.145631,16.647619 L128.271845,16.647619 L128.271845,0.525714286 L129.23301,0.525714286 L134.038835,14.1066667 L134.038835,0.525714286 L134.912621,0.525714286 L134.912621,16.647619 L133.864078,16.647619 L133.864078,16.647619 Z" id="Shape"></path>
                <path d="M144.699029,15.9466667 C144.174757,16.472381 143.475728,16.7352381 142.427184,16.7352381 C141.466019,16.7352381 140.679612,16.472381 140.15534,15.9466667 C139.456311,15.2457143 139.194175,14.4571429 139.194175,12.7047619 L140.067961,12.7047619 C140.067961,14.1066667 140.242718,14.807619 140.76699,15.3333333 C141.116505,15.6838095 141.640777,15.9466667 142.427184,15.9466667 C143.213592,15.9466667 143.737864,15.6838095 144.087379,15.3333333 C144.699029,14.72 144.786408,13.9314286 144.786408,12.5295238 C144.786408,10.4266667 144.436893,9.55047619 143.038835,9.0247619 L141.378641,8.32380952 C139.718447,7.62285714 139.281553,6.74666667 139.281553,4.29333333 C139.281553,2.97904762 139.631068,1.84 140.330097,1.22666667 C140.854369,0.700952381 141.553398,0.35047619 142.514563,0.35047619 C143.475728,0.35047619 144.262136,0.613333333 144.786408,1.22666667 C145.572816,2.0152381 145.660194,2.89142857 145.660194,4.20571429 L144.786408,4.20571429 C144.786408,3.06666667 144.61165,2.45333333 144.087379,1.84 C143.737864,1.40190476 143.213592,1.22666667 142.514563,1.22666667 C141.815534,1.22666667 141.378641,1.40190476 141.029126,1.75238095 C140.504854,2.27809524 140.242718,3.24190476 140.242718,4.29333333 C140.242718,6.30857143 140.504854,6.92190476 142.07767,7.62285714 L143.737864,8.32380952 C145.398058,9.0247619 145.660194,10.3390476 145.660194,12.5295238 C145.660194,14.2819048 145.398058,15.2457143 144.699029,15.9466667 L144.699029,15.9466667 Z" id="Shape"></path>
            </g>
        </g>
    </g>
</svg>