<?xml version="1.0" encoding="UTF-8" standalone="no"?>
<svg width="318px" height="161px" viewBox="0 0 318 161" version="1.1" xmlns="http://www.w3.org/2000/svg" xmlns:xlink="http://www.w3.org/1999/xlink" xmlns:sketch="http://www.bohemiancoding.com/sketch/ns">
    <!-- Generator: Sketch 3.2.2 (9983) - http://www.bohemiancoding.com/sketch -->
    <title>logo-white-old</title>
    <desc>Created with Sketch.</desc>
    <defs></defs>
    <g id="Page-1" stroke="none" stroke-width="1" fill="none" fill-rule="evenodd" sketch:type="MSPage">
        <g id="logo-white-old" sketch:type="MSLayerGroup" transform="translate(0.000000, -1.000000)" fill="#FFFFFF">
            <g id="Group" transform="translate(236.000000, 30.000000)" sketch:type="MSShapeGroup">
                <path d="M8.9,42 C6.7,42 4.7,41.3 3.4,40 C1,37.5 0.5,35.2 0.5,21.1 C0.5,7 1,4.6 3.4,2.2 C4.6,0.9 6.6,0.2 8.9,0.2 C11.3,0.2 13.1,1 14.4,2.3 C16,4 16.7,6.5 16.7,9.6 L14.4,9.6 C14.4,6 13.3,2.3 8.9,2.3 C7.2,2.3 5.9,2.8 5,3.8 C3.1,5.8 2.8,7.6 2.8,21.2 C2.8,34.8 3.1,36.6 5,38.6 C5.8,39.5 7.2,40.1 8.9,40.1 C11.9,40.1 14.4,37.9 14.4,33.7 L14.4,22.3 L8.9,22.3 L8.9,20 L16.6,20 L16.6,33.6 C16.7,39.3 12.9,42 8.9,42 L8.9,42 Z" id="Shape"></path>
                <path d="M37.1,40 C35.9,41.3 33.9,42 31.6,42 C29.4,42 27.4,41.3 26.1,40 C23.7,37.5 23.2,35.2 23.2,21.1 C23.2,7 23.7,4.6 26.1,2.2 C27.3,0.9 29.3,0.2 31.6,0.2 C33.8,0.2 35.8,0.9 37.1,2.2 C39.5,4.7 40,7 40,21.1 C40,35.2 39.5,37.5 37.1,40 L37.1,40 Z M35.5,3.6 C34.7,2.7 33.3,2.1 31.6,2.1 C29.9,2.1 28.6,2.6 27.7,3.6 C25.8,5.6 25.5,7.4 25.5,21 C25.5,34.6 25.8,36.4 27.7,38.4 C28.5,39.3 29.9,39.9 31.6,39.9 C33.3,39.9 34.6,39.4 35.5,38.4 C37.4,36.4 37.7,34.6 37.7,21 C37.7,7.4 37.4,5.6 35.5,3.6 L35.5,3.6 Z" id="Shape"></path>
                <path d="M47.5,41.5 L47.5,0.6 L49.8,0.6 L49.8,39.5 L60.7,39.5 L60.7,41.6 L47.5,41.6 L47.5,41.5 Z" id="Shape"></path>
                <path d="M79.2,39.6 C78,40.8 76,41.5 73.8,41.5 L66,41.5 L66,0.6 L73.7,0.6 C75.9,0.6 77.9,1.3 79.1,2.5 C81.5,5 81.9,7.1 81.9,21 C82,35 81.6,37.1 79.2,39.6 L79.2,39.6 Z M77.5,4 C76.7,3.2 75.3,2.7 73.6,2.7 L68.3,2.7 L68.3,39.5 L73.6,39.5 C75.3,39.5 76.6,39 77.5,38.2 C79.4,36.3 79.7,34.5 79.7,21.1 C79.7,7.7 79.4,6 77.5,4 L77.5,4 Z" id="Shape"></path>
            </g>
            <g id="Group" transform="translate(0.000000, 30.000000)" sketch:type="MSShapeGroup">
                <path d="M7.2,22.6 L2.3,22.6 L2.3,41.5 L0,41.5 L0,0.6 L7.3,0.6 C11.3,0.6 15.6,1.7 15.6,11.6 C15.5,20.3 12.3,22.6 7.2,22.6 L7.2,22.6 Z M7.4,2.6 L2.3,2.6 L2.3,20.5 L7.4,20.5 C11.7,20.5 13.2,17.5 13.2,11.5 C13.2,5.6 11.7,2.6 7.4,2.6 L7.4,2.6 Z" id="Shape"></path>
                <path d="M22.5,41.5 L22.5,0.6 L24.8,0.6 L24.8,41.5 L22.5,41.5 L22.5,41.5 Z" id="Shape"></path>
                <path d="M40.3,22.6 L35.4,22.6 L35.4,41.5 L33,41.5 L33,0.6 L40.3,0.6 C44.3,0.6 48.6,1.7 48.6,11.6 C48.6,20.3 45.5,22.6 40.3,22.6 L40.3,22.6 Z M40.5,2.6 L35.4,2.6 L35.4,20.5 L40.5,20.5 C44.8,20.5 46.3,17.5 46.3,11.5 C46.3,5.6 44.8,2.6 40.5,2.6 L40.5,2.6 Z" id="Shape"></path>
                <path d="M55.6,41.5 L55.6,0.6 L68.8,0.6 L68.8,2.7 L57.9,2.7 L57.9,20 L67.3,20 L67.3,22.1 L57.9,22.1 L57.9,39.5 L68.8,39.5 L68.8,41.6 L55.6,41.5 L55.6,41.5 Z" id="Shape"></path>
                <path d="M90.1,41.5 L83.9,22.6 L78,22.6 L78,41.5 L75.7,41.5 L75.7,0.6 L83,0.6 C87,0.6 91.3,1.7 91.3,11.6 C91.3,18.4 89.4,21.3 86.1,22.3 L92.6,41.5 L90.1,41.5 L90.1,41.5 Z M83.3,2.6 L78.2,2.6 L78.2,20.5 L83.3,20.5 C87.6,20.5 89.1,17.5 89.1,11.5 C89,5.6 87.6,2.6 83.3,2.6 L83.3,2.6 Z" id="Shape"></path>
            </g>
            <path d="M170,29.5 C172.2,29.5 174.2,31.4 174.2,33.7 L174.2,34.3 C174.2,34.3 180.3,29.7 180.3,20.9 C180.3,10 170.9,1.9 154.1,1.9 C139.7,1.9 130.8,10 130.8,29.2 C130.8,44.5 137.8,53.5 154.1,53.5 L154.1,55 L146.8,55 C133.4,55 122.2,68.8 122.2,87.4 C122.2,106.7 134.8,122.6 159.6,122.6 C185.6,122.6 204.8,111.4 204.8,90.2 C204.8,80.9 198.2,67.9 181.3,67.9 C161.2,67.9 153.8,77.9 153.8,86 C153.8,95.6 161.9,98 161.9,98 C161.4,97.4 161.1,96.4 161.1,95.5 C161.1,93.3 163,91.3 165.3,91.3 C167.5,91.3 169.5,93.2 169.5,95.5 C169.5,97.8 167.6,99.7 165.3,99.7 C158.1,99.7 152.4,93.8 152.4,86.1 C152.4,52.6 215,65 215,40.9 C215,33.4 210.8,24.6 201.7,24.6 C196.3,24.6 191.5,28.1 191.5,33.6 C191.5,37.5 192.8,39 192.8,39 C192.8,36.6 194.7,34.7 197,34.7 C199.2,34.7 201.2,36.6 201.2,38.9 C201.2,41.2 199.1,42.9 196.9,42.9 C193.2,42.9 190.2,39 190.2,33.6 C190.2,27.5 195.1,23.6 201.9,23.6 C211.6,23.6 216.7,31.6 216.7,41.1 C216.7,54.9 205.3,65.4 188.6,67.6 C199.1,70.5 206.5,79.6 206.5,90.5 C206.5,111 188.6,124.3 159.7,124.3 C130.8,124.3 112.4,107.4 112.4,87.2 C112.4,65.3 128.7,54.1 143.1,54.1 L143.1,53.8 C136.5,53.8 121.1,46.3 121.1,29.1 C121.1,7.9 139.6,1 154.3,1 C170,1 182,8.2 182,21.3 C182,29.6 176.3,38.2 170.5,38.2 C167.8,38.2 166.2,36.3 166.2,34 C165.8,31.4 167.8,29.5 170,29.5 L170,29.5 Z" id="Shape" sketch:type="MSShapeGroup"></path>
            <g id="Group" transform="translate(98.000000, 146.000000)" sketch:type="MSShapeGroup">
                <path d="M2.6,8.7 L0.8,8.7 L0.8,15.3 L0,15.3 L0,1.1 L2.5,1.1 C3.9,1.1 5.4,1.5 5.4,5 C5.5,7.9 4.4,8.7 2.6,8.7 L2.6,8.7 Z M2.6,1.8 L0.8,1.8 L0.8,8.1 L2.6,8.1 C4.1,8.1 4.6,7.1 4.6,5 C4.6,2.8 4.2,1.8 2.6,1.8 L2.6,1.8 Z" id="Shape"></path>
                <path d="M13.8,14.7 C13.3,15.2 12.6,15.5 11.9,15.5 C11.2,15.5 10.5,15.3 10,14.7 C9.5,14.2 9.2,13.5 9.2,12.5 L9.2,1.1 L10,1.1 L10,12.6 C10,13.9 10.8,14.7 11.9,14.7 C13,14.7 13.8,13.9 13.8,12.6 L13.8,1.1 L14.6,1.1 L14.6,12.5 C14.6,13.5 14.3,14.2 13.8,14.7 L13.8,14.7 Z" id="Shape"></path>
                <path d="M23.3,14.5 C22.8,15.1 22.1,15.3 21,15.3 L18.8,15.3 L18.8,1.1 L21,1.1 C22.1,1.1 22.7,1.3 23.2,1.9 C23.8,2.5 24,3.2 24,4.7 C24,5.7 23.8,6.6 23.2,7.3 C22.9,7.6 22.6,7.8 22.3,7.9 C22.7,8 23.1,8.2 23.4,8.4 C24.2,9.2 24.3,10.3 24.3,11.3 C24.3,13.2 24,13.9 23.3,14.5 L23.3,14.5 Z M21.2,1.8 L19.7,1.8 L19.7,7.6 L21.2,7.6 C22.5,7.6 23.3,6.8 23.3,4.7 C23.3,2.4 22.5,1.8 21.2,1.8 L21.2,1.8 Z M21.2,8.3 L19.7,8.3 L19.7,14.6 L21.2,14.6 C22.6,14.6 23.4,14 23.4,11.4 C23.4,9.2 22.6,8.3 21.2,8.3 L21.2,8.3 Z" id="Shape"></path>
                <path d="M28.3,15.3 L28.3,1.1 L29.1,1.1 L29.1,14.6 L32.9,14.6 L32.9,15.3 L28.3,15.3 L28.3,15.3 Z" id="Shape"></path>
                <path d="M36.2,15.3 L36.2,1.1 L37,1.1 L37,15.3 L36.2,15.3 L36.2,15.3 Z" id="Shape"></path>
                <path d="M45.7,14.8 C45.3,15.2 44.7,15.4 43.9,15.4 C43.1,15.4 42.4,15.2 42,14.7 C41.2,13.9 41,13.1 41,8.1 C41,3.2 41.2,2.4 42,1.5 C42.5,1 43.1,0.8 43.9,0.8 C44.7,0.8 45.4,1 45.8,1.5 C46.3,2.1 46.6,3 46.6,4 L45.8,4 C45.8,3.2 45.6,2.5 45.2,1.9 C44.9,1.6 44.5,1.4 44,1.4 C43.4,1.4 43,1.6 42.7,1.9 C42.1,2.6 41.9,3.2 41.9,7.9 C41.9,12.6 42.1,13.2 42.7,13.9 C43,14.2 43.5,14.4 44,14.4 C44.5,14.4 45,14.2 45.2,13.9 C45.7,13.4 45.8,12.6 45.8,11.8 L46.6,11.8 C46.7,13.3 46.4,14.3 45.7,14.8 L45.7,14.8 Z" id="Shape"></path>
                <path d="M61,15.3 L58.8,8.7 L56.8,8.7 L56.8,15.3 L56,15.3 L56,1.1 L58.5,1.1 C59.9,1.1 61.4,1.5 61.4,5 C61.4,7.3 60.7,8.3 59.6,8.7 L61.8,15.3 L61,15.3 L61,15.3 Z M58.6,1.8 L56.8,1.8 L56.8,8.1 L58.6,8.1 C60.1,8.1 60.6,7.1 60.6,5 C60.6,2.9 60,1.8 58.6,1.8 L58.6,1.8 Z" id="Shape"></path>
                <path d="M65.8,15.3 L65.8,1.1 L70.4,1.1 L70.4,1.8 L66.6,1.8 L66.6,7.8 L69.8,7.8 L69.8,8.5 L66.6,8.5 L66.6,14.5 L70.4,14.5 L70.4,15.2 L65.8,15.3 L65.8,15.3 Z" id="Shape"></path>
                <path d="M74.3,15.3 L74.3,1.1 L75.1,1.1 L75.1,14.6 L78.9,14.6 L78.9,15.3 L74.3,15.3 L74.3,15.3 Z" id="Shape"></path>
                <path d="M87.4,15.3 L86.6,11.1 L83.3,11.1 L82.5,15.3 L81.7,15.3 L84.8,1.1 L85.5,1.1 L88.5,15.3 L87.4,15.3 L87.4,15.3 Z M84.9,2.7 L83.4,10.3 L86.4,10.3 L84.9,2.7 L84.9,2.7 Z" id="Shape"></path>
                <path d="M92.9,1.8 L92.9,15.3 L92.1,15.3 L92.1,1.8 L89.7,1.8 L89.7,1.1 L95.3,1.1 L95.3,1.8 L92.9,1.8 L92.9,1.8 Z" id="Shape"></path>
                <path d="M98.7,15.3 L98.7,1.1 L99.5,1.1 L99.5,15.3 L98.7,15.3 L98.7,15.3 Z" id="Shape"></path>
                <path d="M108.4,14.7 C107.9,15.2 107.3,15.4 106.5,15.4 C105.7,15.4 105,15.2 104.6,14.7 C103.8,13.9 103.6,13.1 103.6,8.1 C103.6,3.2 103.8,2.4 104.6,1.5 C105.1,1 105.7,0.8 106.5,0.8 C107.3,0.8 108,1 108.4,1.5 C109.2,2.3 109.4,3.1 109.4,8.1 C109.4,13.1 109.2,13.9 108.4,14.7 L108.4,14.7 Z M107.9,2.1 C107.6,1.8 107.1,1.6 106.6,1.6 C106,1.6 105.6,1.8 105.3,2.1 C104.7,2.8 104.5,3.4 104.5,8.1 C104.5,12.8 104.7,13.4 105.3,14.1 C105.6,14.4 106.1,14.6 106.6,14.6 C107.1,14.6 107.6,14.4 107.9,14.1 C108.5,13.4 108.7,12.8 108.7,8.1 C108.6,3.4 108.5,2.8 107.9,2.1 L107.9,2.1 Z" id="Shape"></path>
                <path d="M118.4,15.3 L114.2,3.3 L114.2,15.3 L113.4,15.3 L113.4,1.1 L114.2,1.1 L118.4,13.1 L118.4,1.1 L119.2,1.1 L119.2,15.3 L118.4,15.3 L118.4,15.3 Z" id="Shape"></path>
                <path d="M128,14.7 C127.5,15.2 126.9,15.4 126,15.4 C125.2,15.4 124.5,15.2 124,14.7 C123.4,14.1 123.2,13.4 123.2,11.8 L124,11.8 C124,13 124.2,13.7 124.6,14.1 C124.9,14.4 125.4,14.6 126.1,14.6 C126.8,14.6 127.3,14.4 127.6,14.1 C128.1,13.6 128.2,12.9 128.2,11.6 C128.2,9.7 127.9,9 126.7,8.5 L125.2,7.9 C123.7,7.3 123.3,6.5 123.3,4.3 C123.3,3.1 123.6,2.1 124.2,1.6 C124.7,1.1 125.3,0.8 126.1,0.8 C126.9,0.8 127.6,1 128.1,1.6 C128.8,2.3 128.9,3.1 128.9,4.2 L128.1,4.2 C128.1,3.2 127.9,2.7 127.5,2.1 C127.2,1.7 126.7,1.6 126.1,1.6 C125.5,1.6 125.1,1.8 124.8,2.1 C124.3,2.6 124.1,3.4 124.1,4.3 C124.1,6.1 124.3,6.6 125.7,7.2 L127.2,7.8 C128.7,8.4 128.9,9.6 128.9,11.5 C128.9,13.2 128.6,14 128,14.7 L128,14.7 Z" id="Shape"></path>
            </g>
        </g>
    </g>
</svg>