<?xml version="1.0" encoding="utf-8"?>
<!-- Generator: Adobe Illustrator 18.1.0, SVG Export Plug-In . SVG Version: 6.00 Build 0)  -->
<svg version="1.1" id="Layer_1" xmlns="http://www.w3.org/2000/svg" xmlns:xlink="http://www.w3.org/1999/xlink" x="0px" y="0px"
	 viewBox="0 0 1120 42" enable-background="new 0 0 1120 42" xml:space="preserve">
<g>
	<g>
		<defs>
			<rect id="SVGID_1_" width="1120" height="42"/>
		</defs>
		<clipPath id="SVGID_2_">
			<use xlink:href="#SVGID_1_"  overflow="visible"/>
		</clipPath>
		
			<line clip-path="url(#SVGID_2_)" fill="#98C0E3" stroke="#98C0E3" stroke-width="6.5" stroke-miterlimit="10" x1="-2.82" y1="-8" x2="61.513" y2="54.667"/>
		
			<line clip-path="url(#SVGID_2_)" fill="#98C0E3" stroke="#98C0E3" stroke-width="6.5" stroke-miterlimit="10" x1="9.513" y1="-8" x2="73.847" y2="54.667"/>
		
			<line clip-path="url(#SVGID_2_)" fill="#98C0E3" stroke="#98C0E3" stroke-width="6.5" stroke-miterlimit="10" x1="21.847" y1="-8" x2="86.18" y2="54.667"/>
		
			<line clip-path="url(#SVGID_2_)" fill="#98C0E3" stroke="#98C0E3" stroke-width="6.5" stroke-miterlimit="10" x1="34.18" y1="-8" x2="98.513" y2="54.667"/>
		
			<line clip-path="url(#SVGID_2_)" fill="#98C0E3" stroke="#98C0E3" stroke-width="6.5" stroke-miterlimit="10" x1="46.513" y1="-8" x2="110.847" y2="54.667"/>
		
			<line clip-path="url(#SVGID_2_)" fill="#98C0E3" stroke="#98C0E3" stroke-width="6.5" stroke-miterlimit="10" x1="58.847" y1="-8" x2="123.18" y2="54.667"/>
		
			<line clip-path="url(#SVGID_2_)" fill="#E6D02E" stroke="#E6D02E" stroke-width="2" stroke-miterlimit="10" x1="359.13" y1="-6.601" x2="423.463" y2="56.066"/>
		
			<line clip-path="url(#SVGID_2_)" fill="#E6D02E" stroke="#E6D02E" stroke-width="2" stroke-miterlimit="10" x1="370.927" y1="-6.601" x2="435.261" y2="56.066"/>
		
			<line clip-path="url(#SVGID_2_)" fill="#E6D02E" stroke="#E6D02E" stroke-width="2" stroke-miterlimit="10" x1="382.967" y1="-6.601" x2="447.3" y2="56.066"/>
		
			<line clip-path="url(#SVGID_2_)" fill="#E6D02E" stroke="#E6D02E" stroke-width="2" stroke-miterlimit="10" x1="394.822" y1="-6.601" x2="459.156" y2="56.066"/>
		
			<line clip-path="url(#SVGID_2_)" fill="#E6D02E" stroke="#E6D02E" stroke-width="2" stroke-miterlimit="10" x1="406.913" y1="-6.601" x2="471.246" y2="56.066"/>
		<polygon clip-path="url(#SVGID_2_)" fill="#B5258A" points="255.824,42 183.598,42 141.598,0 213.824,0 		"/>
		<polygon clip-path="url(#SVGID_2_)" fill="#B5258A" points="819.971,42 747.745,42 705.745,0 777.971,0 		"/>
		<polygon clip-path="url(#SVGID_2_)" fill="#98C0E3" points="397.689,42 325.463,42 283.463,0 355.689,0 		"/>
		<polygon clip-path="url(#SVGID_2_)" fill="#1C315F" points="537.689,42 465.463,42 423.463,0 495.689,0 		"/>
		
			<line clip-path="url(#SVGID_2_)" fill="#E6D02E" stroke="#E6D02E" stroke-width="2" stroke-miterlimit="10" x1="921.078" y1="-6.601" x2="985.411" y2="56.066"/>
		
			<line clip-path="url(#SVGID_2_)" fill="#E6D02E" stroke="#E6D02E" stroke-width="2" stroke-miterlimit="10" x1="932.875" y1="-6.601" x2="997.209" y2="56.066"/>
		
			<line clip-path="url(#SVGID_2_)" fill="#E6D02E" stroke="#E6D02E" stroke-width="2" stroke-miterlimit="10" x1="944.915" y1="-6.601" x2="1009.248" y2="56.066"/>
		
			<line clip-path="url(#SVGID_2_)" fill="#E6D02E" stroke="#E6D02E" stroke-width="2" stroke-miterlimit="10" x1="956.77" y1="-6.601" x2="1021.104" y2="56.066"/>
		
			<line clip-path="url(#SVGID_2_)" fill="#E6D02E" stroke="#E6D02E" stroke-width="2" stroke-miterlimit="10" x1="968.861" y1="-6.601" x2="1033.194" y2="56.066"/>
		<polygon clip-path="url(#SVGID_2_)" fill="#E6D02E" points="959.637,42 887.411,42 845.411,0 917.637,0 		"/>
		<polygon clip-path="url(#SVGID_2_)" fill="#1C315F" points="1100.637,42 1028.411,42 986.411,0 1058.637,0 		"/>
		<polygon clip-path="url(#SVGID_2_)" fill="#E6D02E" points="679.356,42 607.13,42 565.13,0 637.356,0 		"/>
	</g>
</g>
</svg>
