<?xml version="1.0" encoding="UTF-8" standalone="no"?>
<svg width="26px" height="21px" viewBox="0 0 26 21" version="1.1" xmlns="http://www.w3.org/2000/svg" xmlns:xlink="http://www.w3.org/1999/xlink" xmlns:sketch="http://www.bohemiancoding.com/sketch/ns">
    <!-- Generator: Sketch 3.2.2 (9983) - http://www.bohemiancoding.com/sketch -->
    <title>twitter</title>
    <desc>Created with Sketch.</desc>
    <defs></defs>
    <g id="Page-1" stroke="none" stroke-width="1" fill="none" fill-rule="evenodd" sketch:type="MSPage">
        <g id="twitter" sketch:type="MSLayerGroup" fill="#FFFFFF">
            <path d="M25.4,2.4 C24.5,2.8 23.5,3.1 22.4,3.2 C23.5,2.6 24.3,1.6 24.7,0.4 C23.7,1 22.6,1.4 21.4,1.6 C20.5,0.6 19.1,0 17.6,0 C14.7,0 12.4,2.3 12.4,5.1 C12.4,5.5 12.4,5.9 12.5,6.3 C8.2,6.1 4.3,4 1.8,0.9 C1.3,1.7 1.1,2.6 1.1,3.5 C1.1,5.3 2,6.8 3.4,7.8 C2.5,7.8 1.7,7.5 1,7.1 C1,7.1 1,7.1 1,7.2 C1,9.7 2.8,11.8 5.2,12.2 C4.8,12.3 4.3,12.4 3.8,12.4 C3.5,12.4 3.1,12.4 2.8,12.3 C3.5,14.3 5.4,15.8 7.7,15.9 C5.9,17.3 3.7,18.1 1.2,18.1 C0.8,18.1 0.4,18.1 1.77635684e-15,18 C2.3,19.5 5.1,20.3 8,20.3 C17.6,20.3 22.8,12.5 22.8,5.7 L22.8,5 C23.8,4.3 24.7,3.4 25.4,2.4 L25.4,2.4 L25.4,2.4 Z" id="Shape" sketch:type="MSShapeGroup"></path>
        </g>
    </g>
</svg>