<?xml version="1.0" standalone="no"?>
<!DOCTYPE svg PUBLIC "-//W3C//DTD SVG 1.1//EN" "http://www.w3.org/Graphics/SVG/1.1/DTD/svg11.dtd" >
<svg xmlns="http://www.w3.org/2000/svg" xmlns:xlink="http://www.w3.org/1999/xlink" version="1.1">
<metadata></metadata>
<defs>
<font id="airbagregular" horiz-adv-x="260" >
<font-face units-per-em="2048" ascent="1638" descent="-410" />
<missing-glyph horiz-adv-x="500" />
<glyph horiz-adv-x="0" />
<glyph horiz-adv-x="682" />
<glyph unicode="&#x9;" />
<glyph unicode="&#xa;" />
<glyph unicode="&#xd;" />
<glyph />
<glyph />
<glyph />
<glyph />
<glyph />
<glyph />
<glyph />
<glyph unicode=" " />
<glyph unicode="!" horiz-adv-x="645" d="M190 227q0 15 9 37q11 22 20 31q15 15 31 20q18 9 37 9q22 0 37 -9q15 -5 30 -20q16 -16 21 -31q8 -13 8 -37q0 -21 -8 -37q-5 -14 -21 -30q-11 -13 -30 -23q-15 -6 -37 -6q-19 0 -37 6q-21 11 -31 23q-10 10 -20 30q-9 27 -9 37zM190 1300h193l-31 -860h-131zM221 420 h45l150 -86h-45zM242 119q23 -10 45 -10q10 0 14 2l143 -84q-16 -4 -28 -4q-2 0 -5 1t-5 1zM322 420h45l135 -78v-8h-31zM338 121q12 6 20 14l138 -80q-2 -1 -6 -4t-7.5 -5.5t-7.5 -4.5zM375 449v24l129 -74l-2 -26zM377 504v26l129 -75l-2 -25zM379 156l12 18l131 -76v-2 q-2 -6 -10 -18zM379 561v25l129 -74l-2 -25zM381 295q5 -5 14 -23q1 -2 2 -6.5t2 -7.5l123 -70q-7 17 -24 37q-5 5 -17 13zM381 618v25l129 -74l-2 -26zM383 674v26l129 -73l-2 -27zM385 731v27l129 -76l-2 -25zM387 788v25l129 -74l-2 -24zM387 846l2 24l129 -73l-2 -27z M389 901l2 27l129 -74l-2 -27zM391 958l2 27l129 -76l-2 -24zM393 1016l2 24l129 -73l-2 -25zM395 1073l2 25l129 -74l-2 -27zM397 1128l2 27l129 -74l-2 -26zM399 1186l2 26l129 -75l-2 -25zM401 201q2 8 2 24l129 -73v-9q0 -12 -2 -18zM401 1243l2 25l129 -74l-2 -25z M403 1300l3 21l126 -84v-12z" />
<glyph unicode="&#x22;" horiz-adv-x="954" d="M168 1026q10 -1 43.5 -18.5t72.5 -40.5t46 -27l-6 -8l-27 8v2zM195 1040l28 93l187 -62v182h98v-184l182 59l27 -88l-185 -59l117 -158l-80 -53l-110 152l-109 -150l-80 51l115 158zM254 809q1 0 48 -30.5t54 -35.5l2 5l136 -76l-11 -15l-114 76l-76 51l-27 17l-8 6l-2 2 h-2zM313 981l37 -12l-4 -6zM375 770l14 18l133 -77l-12 -17zM406 811l12 18l135 -77l-14 -19zM434 852l15 18l36 -22l33 -43zM528 1098v16l19 -10zM528 1147v24l82 -47l-28 -8zM528 1204v27l129 -76v-14l-12 -4zM528 1262v12l129 -84v-2zM563 741l4 2l138 -77l-13 -11z M567 971l6 2l142 -82l-19 -6l13 -17l-113 66zM594 762l20 12l138 -78l-21 -14zM610 983l29 10l141 -82l-30 -10zM635 879l115 -66l32 -45l-112 66zM639 793l23 14l137 -80l-21 -14zM674 1004l28 10l142 -82l-29 -8zM713 1122l125 -69l10 -33l-125 72zM735 1053l125 -72 l8 -31l-129 74l4 2z" />
<glyph unicode="#" horiz-adv-x="954" d="M168 1026q10 -1 43.5 -18.5t72.5 -40.5t46 -27l-6 -8l-27 8v2zM195 1040l28 93l187 -62v182h98v-184l182 59l27 -88l-185 -59l117 -158l-80 -53l-110 152l-109 -150l-80 51l115 158zM254 809q1 0 48 -30.5t54 -35.5l2 5l136 -76l-11 -15l-114 76l-76 51l-27 17l-8 6l-2 2 h-2zM313 981l37 -12l-4 -6zM375 770l14 18l133 -77l-12 -17zM406 811l12 18l135 -77l-14 -19zM434 852l15 18l36 -22l33 -43zM528 1098v16l19 -10zM528 1147v24l82 -47l-28 -8zM528 1204v27l129 -76v-14l-12 -4zM528 1262v12l129 -84v-2zM563 741l4 2l138 -77l-13 -11z M567 971l6 2l142 -82l-19 -6l13 -17l-113 66zM594 762l20 12l138 -78l-21 -14zM610 983l29 10l141 -82l-30 -10zM635 879l115 -66l32 -45l-112 66zM639 793l23 14l137 -80l-21 -14zM674 1004l28 10l142 -82l-29 -8zM713 1122l125 -69l10 -33l-125 72zM735 1053l125 -72 l8 -31l-129 74l4 2z" />
<glyph unicode="$" horiz-adv-x="1015" d="M90 338h14l148 -86h-33zM113 358v127h184v-8h2q0 -121 164 -121q40 0 73.5 8.5t60 35t26.5 67.5q0 40 -35 65.5t-87 36.5t-113.5 28t-113.5 39t-87 72t-35 123q0 95 65 149t164 67v251h145v-251q120 -20 183 -109h73v-127q-13 0 -51.5 2t-68.5 1.5t-50 -5.5q0 4 -2 2 q3 61 -44.5 92t-110.5 31q-38 0 -71 -6t-63 -29t-30 -61q0 -35 26.5 -60t68.5 -39.5t93 -27.5t101.5 -30t92.5 -40.5t68.5 -66.5t26.5 -101q0 -96 -70.5 -158.5t-171.5 -78.5v-238h-145v238q-126 19 -180 122h-88zM309 598q9 -2 28.5 -6.5t34 -9t25.5 -9.5q20 -10 164 -94 q-49 4 -121 41t-131 78zM313 827v11q0 10 2 16l131 -78q-1 -1 -6 -22zM319 477v25q109 -58 130 -74v-27zM326 440l108 -61q-88 4 -108 61zM328 877q12 12 20 16l139 -82q-13 -3 -22 -12zM381 -23h45l149 -86h-45zM381 905q5 1 35 6l145 -84q-6 -1 -18.5 -2t-18.5 -2z M469 913q92 -8 115 -67zM481 -23h45l150 -86h-45zM500 547q76 -22 96 -55zM549 -4v27l127 -74v-27zM549 55v25l127 -74v-24zM549 113v26l127 -73v-27zM549 170v27l127 -74v-27zM549 1065v2l6 -4zM549 1098v26l127 -73v-27zM549 1155v27l127 -74v-27zM549 1214v25l127 -74 v-24zM549 1272v26l127 -73v-27zM561 221q22 4 31 8l141 -82q-5 -1 -15.5 -4t-15.5 -4zM592 784l35 7l145 -86q-16 3 -39 -5q-15 10 -66.5 37.5t-74.5 46.5zM625 242l24 12l139 -80l-24 -12zM676 270l20 15l138 -78l-21 -17zM680 791h45l147 -86h-45zM707 975l26 -14h-14z M719 305l14 17l135 -78l-14 -17zM748 604q13 -7 41.5 -22.5t41.5 -24t31.5 -25.5t30.5 -38l-121 69q-11 25 -24 41zM750 344l12 18l133 -75l-10 -21zM774 389q1 3 3 10.5t3 10.5l131 -74q-5 -20 -6 -23zM780 791h25v12l129 -74v-24h-6zM784 524l125 -71q1 -5 3 -15.5 t3 -15.5l-127 74q0 8 -4 28zM786 438q2 8 2 25l130 -74l-3 -24zM805 834v26l129 -74v-26zM805 893v25l129 -74v-27zM805 950v11l108 -72z" />
<glyph unicode="%" horiz-adv-x="1445" d="M72 975q0 105 73.5 174.5t178.5 69.5t178 -70t73 -174q0 -106 -72 -176t-179 -70t-179.5 70t-72.5 176zM162 82h47l147 -86h-45zM172 102l766 1147h143l-766 -1147h-143zM197 975q0 -54 37 -90.5t90 -36.5q52 0 88.5 37t36.5 90q0 52 -36 87.5t-89 35.5t-90 -35.5 t-37 -87.5zM217 977q0 8 4 24l131 -75q-1 -4 -3 -11.5t-3 -11.5zM223 942l123 -72q-4 0 -11 -1t-11 -1q-33 0 -61.5 21.5t-39.5 52.5zM231 1026q3 6 15 18l137 -77q-9 -7 -16 -17zM264 82h45l146 -86h-43zM270 1063q15 8 27 10l127 -74l2 -12q-8 0 -16 -4zM274 680l64 -37 q-8 4 -64 37zM276 711q34 -4 52 -2l147 -86h-22h-23zM338 96l12 19l133 -76l-12 -19zM354 1073q26 -10 43 -24zM365 139l12 19l135 -78l-12 -19zM377 713q5 1 15.5 3t15.5 3l108 -62l-12 -20zM393 180l13 19l133 -76l-13 -21zM422 223l12 19l133 -78l-12 -19zM442 731 q20 10 23 12l80 -45l-13 -18zM449 264l12 19l135 -78l-12 -19zM477 305l12 21l134 -78l-13 -19zM492 762l18 14l63 -37l-12 -18zM506 348l12 19l133 -78l-12 -19zM530 797l15 18l55 -33l-12 -18zM532 389l13 19l135 -76l-12 -21zM559 838l12 20l58 -35l-13 -18zM561 432 l12 19l117 -68l-2 -25zM569 1090l121 -70q12 -20 17 -35l-123 70q-8 23 -15 35zM582 883l6 22l69 -39l-12 -18zM590 473l12 19l98 -58l-6 -22zM592 1018l121 -68l-13 -20l-104 61q0 11 -4 27zM594 934l2 24l88 -51l-12 -18zM616 514l13 21l92 -54q-2 -3 -5 -10t-5 -10z M645 557l12 18l93 -53l-15 -18zM674 598l12 18l100 -57l-16 -16zM700 641l13 18l123 -69l-23 -15zM709 352q0 105 74 175.5t178 70.5q105 0 178 -70.5t73 -175.5q0 -106 -72 -176t-179 -70t-179.5 70t-72.5 176zM729 682l12 18l133 -75l-12 -21zM756 725l14 18l133 -77 l-12 -19zM784 766l13 18l135 -77l-14 -19zM805 131q15 -10 44.5 -20.5t39.5 -16.5l158 -92q-31 4 -67 20t-57 29t-64 43t-54 37zM813 807l12 20l133 -77l-12 -19zM836 352q0 -53 36.5 -90t88.5 -37t89 37t37 90q0 52 -36.5 88.5t-89.5 36.5q-51 0 -88 -36.5t-37 -88.5z M840 850l14 18l133 -77l-12 -19zM856 344l129 -74v-20l-8 -2l-113 67q-4 7 -8 29zM858 375q4 16 8 22l133 -78q-8 -12 -10 -20zM868 891l13 18l135 -75l-15 -21zM883 420q2 3 4.5 5.5t6 5.5t5.5 5l139 -80q-12 -6 -20 -14zM897 934l12 18l133 -78l-12 -18zM924 975l14 18 l133 -78l-12 -18zM930 451q20 4 31 4h6l82 -47q10 -13 14 -35zM952 1016l13 20l135 -78l-15 -18zM958 86q16 -2 41 2l146 -84q-6 -1 -19.5 -2t-19.5 -2zM981 1059l12 18l133 -78l-12 -18zM1008 1100l14 18l133 -76l-12 -18zM1036 1143l13 18l135 -78l-15 -18zM1042 96 q14 4 27 10l141 -81q-5 -2 -14 -5.5t-14 -5.5zM1065 1184l12 18l133 -76l-12 -20zM1092 1225l12 20l135 -78l-12 -18zM1100 121l22 12l138 -78l-21 -14zM1120 1268l2 2l41 -27zM1145 152q3 3 9 8t9 8l133 -78q-8 -12 -14 -16zM1180 190l14 19l133 -78l-12 -18zM1190 500 l113 -66q13 -13 28 -43l-121 70q-11 25 -20 39zM1206 231q10 21 11 23l131 -78q-4 -13 -9 -20zM1225 281l6 22l129 -76l-4 -22zM1225 422l125 -72q4 -9 8 -31l-127 72q0 16 -6 31zM1233 332q2 10 2 26l127 -73v-19v-8z" />
<glyph unicode="&#x26;" horiz-adv-x="1216" d="M55 428q0 194 207 297l-44 44t-38 42t-36.5 50.5t-20.5 51.5t-10 62q0 118 85.5 198t204.5 80q120 0 209.5 -79.5t89.5 -198.5q0 -108 -56.5 -171t-168.5 -118l225 -211q43 106 60 203h139q-26 -148 -104 -291l202 -188l-102 -88l-174 168q-141 -175 -328 -175 q-139 0 -239.5 92.5t-100.5 231.5zM186 432q0 -88 63 -143.5t152 -55.5q138 0 236 129l-281 271q-43 -19 -67.5 -33.5t-51.5 -38t-39 -55.5t-12 -74zM193 141q15 -9 45 -21t43 -20l163 -94q-100 20 -251 135zM207 432l129 -74v-26l-127 74q0 4 -1 12.5t-1 13.5zM211 463 q1 4 3 11t3 11l131 -75q-1 -4 -3 -11.5t-3 -11.5zM219 367l123 -70q6 -19 16 -35l-116 68q-12 15 -23 37zM227 510q1 2 13 20l133 -77q-2 -3 -6.5 -9.5t-6.5 -9.5zM242 975q0 -21 7 -42t14.5 -35.5t25 -34.5t27 -29.5t32.5 -29.5t29 -26q37 16 65.5 32t60.5 40.5t50 56.5 t18 68q0 65 -51 111.5t-117 46.5q-69 0 -115 -44t-46 -114zM258 551q6 10 16 16l138 -80q-17 -12 -19 -14zM262 975v4l129 -74v-24l-125 71q-4 16 -4 23zM266 1010q3 12 8 22l134 -78q-10 -14 -11 -20zM279 913l122 -71q1 -6 11 -25l-6 -2q-10 5 -31.5 16t-30.5 16.5 t-23 15.5t-24 22t-18 28zM289 1055q8 12 14 18l135 -78q-3 -3 -8 -9t-8 -9zM303 584l137 -80l15 6l-35 31l-92 55q-2 -1 -11.5 -5.5t-13.5 -6.5zM328 1092q11 7 24 10l142 -80q-5 -2 -14.5 -5t-14.5 -5zM365 84h45l147 -86h-33h-10zM393 1110l10 2q41 1 79 -23t57 -61z M457 88q6 1 17.5 3t17.5 3l141 -82q-22 -4 -31 -8zM524 686q18 9 23 14l139 -79l-22 -15zM526 106l27 11l139 -80l-24 -12zM565 631q68 -76 135 -103l2 9q-20 25 -60.5 51.5t-76.5 42.5zM573 717l21 14l137 -80q-1 -1 -8 -6.5t-12 -7.5zM584 131q4 2 11 6t11 6l137 -77 l-20 -15zM618 750l19 14l113 -66h-7l-2 -20zM633 162l18 14l137 -78l-20 -16zM657 784l15 19l133 -78l-14 -18zM657 1159q15 -9 45 -25t41 -23.5t28 -23.5t32 -38l-117 65q-7 15 -29 45zM674 195l16 16l137 -78l-18 -16zM688 825q1 1 5 9.5t5 9.5l131 -76l-8 -20zM707 1071 l122 -70q2 -5 6.5 -16t6.5 -16l-125 71q-2 12 -10 31zM709 870q0 1 3 9.5t3 13.5l131 -76q-1 -4 -3 -11t-3 -11zM711 231l14 17l61 -60zM721 922l2 24l129 -74l-2 -26zM723 1004l127 -72q0 -5 1 -14.5t1 -14.5l-127 74q0 5 -1 14t-1 13zM825 397l11 21l133 -78l-11 -21z M848 442l10 21l131 -76l-8 -20zM868 489l9 21l131 -76l-9 -22zM885 537l8 22l131 -76l-6 -22zM897 82l8 6l135 -78l-14 -14zM897 324q46 -21 92.5 -54t77.5 -69q-46 21 -92.5 54t-77.5 69zM901 586l6 22l131 -76l-6 -22zM913 637l7 22l129 -75l-5 -23zM924 688l2 10l129 -86 zM926 106l18 17l137 -78l-18 -16zM967 141l18 17l135 -78l-18 -17zM1008 176l16 17q12 -6 73 -41.5t62 -38.5l-16 -15z" />
<glyph unicode="'" horiz-adv-x="583" d="M139 915l129 -86l105 -36l4 6l-139 82zM166 928l121 372l116 -45l-170 -352zM254 897l12 25l131 -78l-12 -25zM274 942l13 25l133 -78l-12 -25zM297 987l12 25l133 -76l-12 -27zM319 1032l13 25l131 -76l-12 -25zM342 1077l10 25l133 -76l-12 -25zM362 1122l13 25 l133 -76l-12 -24zM385 1167l12 27l131 -78l-10 -24zM408 1214l12 25l131 -78l-12 -24zM428 1260l4 8l123 -82z" />
<glyph unicode="(" horiz-adv-x="747" d="M111 670q0 205 75.5 401.5t210.5 364.5l103 -82q-117 -146 -180.5 -323t-63.5 -361t63.5 -361t180.5 -325l-103 -82q-135 168 -210.5 365.5t-75.5 402.5zM279 633l129 -74v-27l-127 74zM279 666v4v22l129 -76l-2 -24zM279 723l2 25l129 -74l-2 -25zM283 573l127 -73 l2 -27l-127 72zM285 778l2 25l129 -76l-2 -22zM291 510l125 -72l6 -28l-127 71zM291 831l4 25l131 -76l-4 -22zM301 885l4 22l131 -76l-4 -22zM303 446l125 -73l6 -29l-125 72zM313 936l6 22l132 -75l-7 -23zM319 377l125 -72l9 -31l-123 72zM328 985l6 23l133 -76l-8 -23z M344 307l123 -71l12 -33l-123 69zM344 1034l8 21l131 -76l-8 -23zM362 1081l9 21l133 -76l-8 -22zM375 231l121 -71l16 -35l-121 70zM383 1126l10 21l133 -76l-10 -20zM406 1171q2 3 5 10.5t5 10.5l133 -78l-10 -18zM416 -111l20 17l135 -80l-18 -14zM416 -141l114 -66 l-8 -6zM416 150l119 -70l22 -39l-119 70zM430 1214l12 21l133 -78l-12 -18zM457 1257l12 19l135 -76l-14 -18zM459 -76l18 15l137 -78l-18 -17zM471 59l117 -67q11 -19 28 -43l-112 65q-2 3 -14.5 19.5t-18.5 25.5zM485 1300l15 17l133 -76l-15 -18zM500 -43l20 16l135 -79 l-18 -15zM516 1339q2 3 6 9.5t6 9.5l-2 2q83 -42 131 -88l-8 -10z" />
<glyph unicode=")" horiz-adv-x="770" d="M125 -16q117 148 180.5 325t63.5 361t-63.5 361t-180.5 323l100 82q135 -168 211 -364.5t76 -401.5t-76 -402.5t-211 -365.5zM229 1464l64 -41l-55 31zM242 -113l12 19l135 -78l-14 -18zM272 -72l13 19l135 -78l-14 -19zM281 1397l114 -66q2 -3 14.5 -19.5t18.5 -25.5 l-115 68zM301 -31l12 19l136 -78l-13 -19zM330 10l12 19l133 -76l-12 -21zM340 -201l18 -12h-2zM346 1303l117 -68l24 -41l-118 70q-14 21 -23 39zM356 53q9 14 11 19l133 -76l-11 -21zM381 96l10 21l133 -78l-10 -19zM395 1217l119 -70l18 -37l-118 70zM403 141l11 21 l133 -78l-10 -21zM426 186l10 21l131 -76l-8 -20zM432 1137l123 -72l14 -35l-123 72zM446 233l9 21l131 -76l-8 -22zM463 1061l123 -72l12 -33l-123 72zM465 281l6 20l133 -76l-8 -20zM481 328l6 22l131 -76l-6 -22zM487 989l123 -71l11 -33l-125 73zM496 379l6 22l131 -75 l-6 -23zM506 920l125 -72l6 -31l-125 74zM508 430l4 23l131 -76q-4 -16 -4 -23zM518 481l4 23l129 -74l-4 -24zM518 854l127 -72l4 -28l-127 71zM526 535l2 24l129 -76l-2 -24zM526 793l127 -74l4 -29l-127 74zM530 590l2 24l130 -73l-3 -27zM532 705v26l127 -74l3 -26z M535 645v27l127 -74v-14v-13z" />
<glyph unicode="*" horiz-adv-x="954" d="M168 1026q10 -1 43.5 -18.5t72.5 -40.5t46 -27l-6 -8l-27 8v2zM195 1040l28 93l187 -62v182h98v-184l182 59l27 -88l-185 -59l117 -158l-80 -53l-110 152l-109 -150l-80 51l115 158zM254 809q1 0 48 -30.5t54 -35.5l2 5l136 -76l-11 -15l-114 76l-76 51l-27 17l-8 6l-2 2 h-2zM313 981l37 -12l-4 -6zM375 770l14 18l133 -77l-12 -17zM406 811l12 18l135 -77l-14 -19zM434 852l15 18l36 -22l33 -43zM528 1098v16l19 -10zM528 1147v24l82 -47l-28 -8zM528 1204v27l129 -76v-14l-12 -4zM528 1262v12l129 -84v-2zM563 741l4 2l138 -77l-13 -11z M567 971l6 2l142 -82l-19 -6l13 -17l-113 66zM594 762l20 12l138 -78l-21 -14zM610 983l29 10l141 -82l-30 -10zM635 879l115 -66l32 -45l-112 66zM639 793l23 14l137 -80l-21 -14zM674 1004l28 10l142 -82l-29 -8zM713 1122l125 -69l10 -33l-125 72zM735 1053l125 -72 l8 -31l-129 74l4 2z" />
<glyph unicode="+" />
<glyph unicode="," />
<glyph unicode="-" horiz-adv-x="751" d="M172 553h18l146 -84h-37zM193 575v82h356v-82h-356zM233 553h56l147 -84h-55zM334 553l147 -84h56l-148 84h-55zM434 553h55l148 -84h-55zM535 553h36v10l127 -74v-20h-16zM571 590v33l127 -76v-31zM571 649v29l127 -86v-19z" />
<glyph unicode="." horiz-adv-x="598" d="M102 240q0 9 9 36q11 22 20 31q11 11 31 21q24 8 39 8t35 -8q18 -9 30 -21q16 -16 21 -31q8 -16 8 -36q0 -21 -8 -37q-5 -15 -21 -31q-9 -12 -30 -22q-22 -9 -35 -9q-12 0 -39 9q-22 11 -31 22q-9 9 -20 31q-9 27 -9 37zM154 131q23 -10 47 -10h12l143 -82q-16 -4 -28 -4 q-7 0 -11 2zM250 133q12 6 20 14l138 -79q-9 -9 -21 -15zM291 168l12 18l133 -75l-2 -2q-3 -8 -10 -19zM293 307q6 -6 14 -22q1 -2 2 -7t2 -8l123 -69q-11 22 -24 35q-3 5 -17 14zM313 213q2 8 2 25l129 -76v-6q0 -13 -2 -19z" />
<glyph unicode="/" />
<glyph unicode="0" horiz-adv-x="1163" d="M86 692q0 119 29 238q26 107 75 178q42 61 119 115q71 47 197 47q122 0 196 -39q78 -37 132 -115q49 -71 71 -186q21 -111 21 -234q0 -120 -21 -225t-69 -182q-50 -77 -129 -123q-82 -43 -203 -43q-120 0 -199 43q-78 43 -129 121q-49 79 -67 182q-23 115 -23 223z M238 696q0 -84 10 -172q9 -76 37 -141q28 -60 82 -94q49 -35 137 -35q90 0 139 35q53 35 80 94q25 58 41 141q12 80 12 172q0 80 -10 168q-8 74 -39 144q-30 62 -84 98q-52 37 -137 37q-87 0 -139 -37q-50 -38 -76 -88q-24 -52 -39 -144q-14 -103 -14 -178zM260 645l129 -74 v-26l-127 73q-2 10 -2 27zM260 678v18v9l127 -74v-21v-6zM260 735q0 19 2 27l129 -76q-2 -8 -2 -24zM262 586l129 -74q0 -17 2 -27l-127 74q-1 4 -2 13.5t-2 13.5zM264 793q0 4 1 12t1 12l129 -76q0 -4 -1 -12t-1 -12zM268 524l127 -71q0 -2 1 -6.5t1 -6.5t1 -7.5t1 -8.5 l-127 74q-1 4 -2 13t-2 13zM270 846q0 4 1 12t1 12l131 -75q0 -1 -1 -4.5t-1 -4.5q0 -10 -2 -14zM274 158v2q15 -10 21 -13q38 -21 80 -30l160 -94q-70 14 -105 36l-29 17h-2l-2 2h-2v2h-2l-2 2h-2v2h-2l-2 2h-2v2h-2l-2 2h-2q0 2 -2 2l-2 2h-2q0 2 -2 2l-2 2h-2v2h-3l-2 2 h-2v2h-2h-2v2h-2v3h-2l-2 2h-2v2h-2l-2 2h-2q0 2 -2 2t-2 2h-2q0 2 -2 2l-2 2q-2 0 -2 2h-2l-2 2h-2v2h-3l-2 2h-2v2h-2h-2v2h-2v2h-2l-2 2h-2v2h-2q-2 0 -2 2h-2q0 2 -2 2l-2 2q-2 0 -2 3h-2l-2 2h-2v2h-2l-2 2h-2v2h-3h-2zM279 899q4 16 4 23l131 -74q-4 -16 -4 -25z M281 461l125 -72q1 -5 2.5 -11t3 -11.5t2.5 -8.5l-125 72q0 1 -3.5 13t-4.5 18zM291 950q1 4 3 11.5t3 11.5l131 -76q-1 -4 -3 -11.5t-3 -11.5zM307 387l121 -70q1 -2 2 -5.5t2 -4.5q2 -6 7.5 -15t6.5 -11l-112 65q-11 14 -27 41zM307 999q1 1 2 4.5t2 4.5q4 8 6 10l134 -76 q-12 -18 -13 -20zM332 1042q2 2 7.5 8.5t8.5 8.5l135 -78l-16 -16zM369 1079q2 1 6 4t6 4q6 6 8 7l137 -80q-3 -2 -9 -5t-9 -5q0 -1 -1 -2.5t-1 -2.5zM418 1108q9 4 31 8l145 -82q-26 -4 -35 -8zM453 102q8 0 24.5 -1t24.5 -1l147 -84q-6 -2 -16 -2q-19 0 -29 2zM498 1120h8 q27 0 39 -2l135 -78l8 -8q-14 2 -43 2zM553 102q7 1 20 2t19 2l143 -81q-6 -1 -18.5 -3.5t-18.5 -3.5zM633 115q5 2 14.5 5t14.5 5l141 -82q-5 -2 -14.5 -5t-14.5 -5zM694 137q4 2 11.5 5t11.5 5q0 3 2 3l137 -80q-2 -1 -6 -3.5t-6 -3.5q-2 -2 -10 -6zM733 1239v2v-2z M745 166l21 14l135 -78q-3 -3 -9 -8t-9 -8zM754 1227h2l2 -2q2 0 2 -2h2l2 -2q2 0 2 -2h2l2 -2h2v-3h2v-2h2h2v-2h2l2 -2h2v-2h2l2 -2h3q0 -2 2 -2l2 -2q2 0 2 -2h2l2 -2q2 0 2 -2h2l2 -2h2v-2h2l2 -2h2v-2h2v-2h2h2v-2h2l2 -2h2v-2h2l2 -2h3q0 -2 2 -2l2 -3q2 0 2 -2h2 l2 -2h2v-2h2l2 -2h2v-2h2v-2h2h2v-2h2l2 -2h2v-2h2q0 -2 2 -2t2 -2h2l2 -2q3 0 3 -2h2l2 -2q32 -21 49 -41l-105 61q-44 48 -71 66v-2zM788 199q6 8 17 16l135 -78l-16 -16zM823 238q13 13 15 16l133 -76q-2 -3 -6.5 -9t-6.5 -9zM854 279q8 12 10 18l133 -78q-2 -3 -5 -9 t-5 -9zM862 1110l119 -68q4 -6 11.5 -19t11.5 -19l-121 69q-11 22 -21 37zM879 322q1 3 4 10t4 10l133 -76l-10 -20zM897 369q3 4 8 20l131 -76q-1 -4 -3 -11t-3 -11zM899 1030l123 -72q8 -20 12 -32l-125 71q-2 14 -10 33zM913 416q1 4 7 22l131 -73q-1 -4 -3.5 -12.5 t-3.5 -12.5zM920 961l124 -72q6 -14 9 -31l-127 72v4q-1 4 -3 13.5t-3 13.5zM926 467q4 16 4 25l131 -76l-4 -23zM932 895l127 -72l4 -28l-127 71q0 13 -4 29zM936 520q0 4 1 12.5t1 12.5l129 -76l-2 -25zM940 834l127 -74l4 -29l-129 74q0 19 -2 29zM942 573q0 19 2 27 l129 -76l-2 -24zM944 772q2 -8 2 -27l127 -73v26zM946 631v24l129 -73v-27zM946 688v8v17l129 -74v-27z" />
<glyph unicode="1" horiz-adv-x="1163" d="M266 907l25 13l137 -80l-22 -13zM266 932v153l312 175h59v-1022h108v-125h-360v125h109v817zM319 936l23 12l129 -74v-10l-14 -8zM328 842l49 -29l-4 -2zM371 965l22 12l78 -45v-27zM379 90h45l147 -86h-45zM422 993l24 13l25 -17v-24zM479 90h45l148 -86h-45zM580 90h45 l147 -86h-45zM657 276v27l76 -43h-45zM657 334v26l129 -73v-27zM657 393v25l129 -74v-25zM657 451v26l129 -74v-26zM657 508v27l129 -74v-27zM657 567v25l129 -74v-26zM657 625v26l129 -76v-24zM657 682v27l129 -74v-27zM657 741v25l129 -74v-26zM657 799v26l129 -75v-25z M657 856v27l129 -74v-27zM657 913v27l129 -74v-26zM657 973v24l129 -73v-25zM657 1030v27l129 -74v-27zM657 1087v27l129 -74v-26zM657 1147v24l129 -73v-27zM657 1204v27l129 -76v-25zM657 1262v20l129 -86v-8zM680 90h45l147 -86h-45zM768 98v25l127 -74v-26zM768 156v26 l127 -76v-24zM768 213v27l127 -74v-27z" />
<glyph unicode="2" horiz-adv-x="1163" d="M168 90h16l148 -86h-35zM168 903h12l150 -86h-35zM188 924q1 136 96 229.5t230 93.5q142 0 237 -86.5t95 -226.5q0 -123 -129 -279l-348 -413h475v-129h-654v106l392 475q73 87 96 129q31 58 31 111q0 77 -59 127.5t-138 50.5q-83 0 -135 -51.5t-55 -136.5h-134zM236 903 h45l149 -86h-45zM240 90h45l147 -86h-45zM336 903h6v23l129 -74v-27zM340 90h45l147 -86h-45zM346 956q6 22 6 23l131 -76q0 -2 -3 -9.5t-3 -12.5zM362 1006q1 3 11 18l135 -78l-12 -18zM391 1044q13 13 19 17l139 -80q-14 -7 -21 -14zM424 274l14 17l49 -29h-45zM438 1075 q19 8 31 10l143 -81q-16 -3 -32 -9zM440 90h45l148 -86h-45zM457 313l14 17l117 -68h-45zM489 352l15 17l135 -78l-14 -17zM514 1090q48 0 90.5 -23t65.5 -63h-4zM522 391l15 17l135 -78l-15 -17zM541 90h45l147 -86h-45zM555 430l14 16l136 -77l-15 -17zM588 469l14 16 l135 -77l-14 -17zM621 508l14 18l135 -77l-14 -19zM641 90h45l148 -86h-46zM653 547l15 18l135 -78l-15 -18zM686 586l14 18l136 -78l-15 -18zM719 625q1 2 7 9t7 9l135 -78l-14 -18zM719 1212q4 -2 11 -7t11 -7l70 -47q-10 5 -70 47zM719 1212l22 -14q-4 2 -11 7t-11 7z M741 90h45l148 -86h-45zM752 664l12 18l135 -78l-14 -18zM780 705l15 18l133 -76q-1 -2 -13 -20zM809 748l10 18l133 -76l-10 -20zM815 1116l115 -65q8 -10 26 -41l-120 69q-11 22 -21 37zM831 791l11 20l131 -76l-8 -20zM842 90h24v12l129 -73v-25h-6zM852 838l6 22 l131 -76l-6 -22zM852 1038l123 -71q8 -19 10 -33l-125 74q-4 20 -8 30zM864 889l2 24l129 -73q0 -19 -2 -27zM866 133v27l129 -74v-27zM866 193v24l129 -74v-24zM866 250v12l129 -86zM866 944v29l125 -74l4 -29z" />
<glyph unicode="3" horiz-adv-x="1163" d="M152 938h43l147 -86h-45q-13 8 -66 37.5t-79 48.5zM164 381h141q23 -73 80 -110.5t135 -37.5q83 0 143 61.5t60 143.5q0 88 -61 145.5t-150 57.5h-63v111q260 0 260 184q0 82 -61.5 134t-143.5 52q-70 0 -128 -47t-61 -117h-141q7 123 105 207t223 84q137 0 241.5 -85.5 t104.5 -219.5q0 -82 -41 -145.5t-115 -100.5q80 -30 124 -101.5t44 -160.5q0 -145 -104 -240.5t-250 -95.5q-129 0 -229.5 77.5t-112.5 203.5zM250 938h45l147 -86h-45zM322 401q40 -22 127 -86l6 -18l-123 72q-2 6 -5 16.5t-5 15.5zM336 946q0 17 2 25l131 -76 q-4 -12 -4 -23zM346 999q3 8 10 19l133 -76q-2 -3 -6 -10t-6 -10zM362 319l101 -59q-67 17 -101 59zM373 1040q2 2 7.5 8.5t8.5 8.5l135 -78l-16 -16zM410 92q18 -6 63 -10l150 -86q-22 0 -54 4zM412 1075q12 9 24 12l139 -79q-20 -10 -24 -13zM428 621h16l148 -86h-37z M473 1098q20 4 31 2h12l148 -86l2 -2q-32 4 -48 2zM500 621l147 -86q9 0 29 -5l-14 21q-8 5 -34 23t-38.5 25t-34.5 14.5t-43 7.5h-12zM528 82q27 0 39 2l144 -82q-5 -1 -35 -6zM608 92q5 2 15.5 5t15.5 5l139 -82q-4 -2 -14 -5t-14 -5zM672 115l22 12l140 -80l-23 -12z M719 1208q12 -7 43 -27t48.5 -31.5t41.5 -29t41 -33.5l-102 60q-8 5 -33 28.5t-39 32.5zM723 143l20 15l136 -80l-19 -15zM750 707l18 16l137 -80l-18 -14zM766 176q3 3 8 8.5t8 8.5l136 -78l-17 -17zM791 741l14 19l135 -78l-14 -18zM801 213l14 18l133 -77l-12 -19z M811 641q14 -8 42.5 -24.5t41.5 -25t31 -25.5t32 -38l-116 68q-8 13 -31 45zM821 780q3 6 13 21l133 -78q-2 -3 -5.5 -9t-5.5 -9zM829 254l13 20l133 -75l-10 -21zM829 1094l117 -68q14 -21 23 -39l-121 70q-3 6 -9.5 18.5t-9.5 18.5zM846 825l8 21l131 -76l-6 -20zM854 299 l8 20l131 -75l-8 -21zM860 1018l125 -72q1 -5 4 -15.5t4 -15.5l-127 72q-1 5 -3 15.5t-3 15.5zM862 553l121 -72q9 -15 12 -32l-123 71q-2 5 -5 16t-5 17zM862 874l4 23l129 -74l-2 -24zM870 348l7 23l129 -76l-5 -23zM870 928v26l127 -73v-23v-4zM879 485l127 -73 q0 -4 1 -14t1 -15l-127 74zM881 399v27l129 -76v-24z" />
<glyph unicode="4" horiz-adv-x="1163" d="M119 434l2 117l397 678h156l-377 -668h285v184l145 11v-195h166v-127h-166v-196h111v-125h-363v125h107v196h-463zM131 414h45l150 -86h-45zM231 414h45l150 -86h-45zM332 414h45l149 -86h-45zM336 586l10 18l39 -22h-45zM360 629l11 20l114 -67h-45zM385 672l10 20 l133 -78l-10 -18zM410 717l10 18l133 -76l-10 -20zM432 414h45l84 -49v-27zM434 760l10 20l117 -67v-27zM459 803l10 20l100 -57l-8 -2v-19zM483 848l13 18l133 -75l-13 -21zM489 90h46l147 -86h-45zM508 891l12 20l133 -77l-12 -21zM532 414h29v-17zM532 934l13 20l133 -77 l-12 -19zM557 979l12 18l133 -75l-12 -21zM578 8l4 -4zM582 1022l12 20l133 -77l-12 -21zM590 90h45l147 -86h-45zM606 1065l12 20l134 -77l-11 -19zM633 1110l10 18l133 -75l-10 -21zM657 1153l11 21l133 -78l-10 -21zM682 1196l10 21l133 -78l-10 -19zM690 90h45l150 -86 h-47zM707 1241l4 8l129 -86zM748 289v26l96 -55h-45zM748 346v27l129 -74v-27zM748 406v8h32l148 -86h-45zM748 582v22l38 -22h-38zM748 637v27l129 -76v-6h-35zM748 694v27l129 -74v-26zM748 752v26l129 -86v-14zM791 90h45l149 -86h-47zM836 414h45l147 -86h-45zM858 109 v26l129 -74v-26zM858 168v25l129 -74v-27zM858 225v27q105 -61 129 -78v-22zM915 424v27l127 -74v-27zM915 483v25l127 -74v-26zM915 541v26l127 -75v-25z" />
<glyph unicode="5" horiz-adv-x="1163" d="M137 324l121 61q25 -78 90.5 -126t145.5 -48q104 0 176.5 73t72.5 177t-72 174t-177 70q-119 0 -191 -78l-108 16v586h628v-123h-508v-336q83 57 185 57q158 0 267.5 -104.5t109.5 -261.5q0 -161 -111 -267t-272 -106q-122 0 -217.5 62t-139.5 174zM174 627l27 -4 l155 -91l-55 9zM274 406q14 -8 40 -23t47 -27.5t38 -25.5q3 -13 9 -29l-123 72q-9 24 -11 33zM276 610l35 -6l6 8l136 -80l-15 -14l-6 2zM311 326l117 -68q1 -2 3.5 -6t4.5 -7t4 -5l2 -2q4 -1 13.5 -2.5t13.5 -2.5q-7 0 -27 5l-2 2q-77 18 -129 86zM338 809v22l22 -12z M338 864v27l86 -51q-22 -4 -31 -9zM338 922v26l127 -74v-26zM338 979v27l127 -74v-27zM338 1038v25l127 -74v-24zM340 631q6 6 18 14l140 -80q-4 -2 -11.5 -6t-11.5 -6zM356 1085h45l150 -86h-45zM387 662q5 2 14.5 5t14.5 5l141 -82q-15 -3 -29 -10zM393 78q19 -4 62 -8 l149 -88q-45 5 -53 6zM455 680q28 4 39 4h2l149 -88q-23 3 -45 0zM457 1085h45l149 -86h-45zM512 68q15 0 39 4l145 -84q-24 -4 -39 -4zM557 1085h45l150 -86h-45zM573 670q33 -10 72 -41zM594 78q5 1 15.5 4t15.5 4l141 -82q-5 -1 -15.5 -4t-15.5 -4zM657 1085h45l150 -86 h-45zM659 98q4 2 12.5 6.5t12.5 6.5l139 -80q-4 -2 -12 -6.5t-12 -6.5zM711 127l22 12l137 -78l-20 -14zM731 778l42 -28t59 -39.5t49 -35t34 -28.5l-106 62q-31 37 -78 69zM758 158l16 16l137 -80l-18 -14zM758 1085h45l149 -86h-45zM795 195l16 16l133 -78l-14 -16z M827 233l13 19l133 -76l-12 -20zM844 655l119 -67q4 -6 11 -19.5t11 -19.5l-121 69q-14 28 -20 37zM844 1092v26l129 -74v-26zM844 1151v25l129 -74v-25zM844 1208v27l129 -74v-26zM854 276l8 21l133 -76l-10 -20zM872 324l9 20l131 -76l-6 -22zM879 578l125 -72 q4 -11 8 -33l-125 74q-4 22 -8 31zM887 373l6 22l129 -73l-4 -25zM893 510l127 -72l4 -28l-127 73zM895 426l2 25l129 -74v-12l-2 -15z" />
<glyph unicode="6" horiz-adv-x="1163" d="M117 471q0 104 86 260l274 498h170l-250 -418q64 25 148 25q145 0 247.5 -101.5t102.5 -245.5q0 -173 -109.5 -283t-281.5 -110q-160 0 -273.5 108.5t-113.5 266.5zM254 469q0 -111 70 -177.5t182 -66.5q105 0 178.5 70.5t73.5 173.5q0 115 -77 180.5t-194 65.5 q-104 0 -168.5 -70.5t-64.5 -175.5zM276 463l130 -74q-1 -4 -1 -9t0.5 -10t0.5 -8l-127 72q-3 15 -3 29zM276 494l5 24l129 -76q0 -4 -1 -11t-1 -11zM285 399l125 -71q2 -5 5 -16t5 -17l-123 72q-8 20 -12 32zM287 547l6 20l133 -75q-2 -3 -8 -21zM307 592q3 11 12 20 l134 -77q-2 -3 -6.5 -9.5t-6.5 -9.5zM334 313l98 -57q-60 16 -98 57zM338 633q2 3 9 8.5t9 7.5l138 -80l-21 -14zM346 106q39 -17 88 -24l154 -90q-32 4 -67 17t-56 24.5t-62 37.5t-57 35zM381 666q4 2 11 6t11 6l142 -80q-12 -6 -27 -12zM440 690q12 2 39 2l148 -84 q-29 0 -43 -2zM451 858l12 19l37 -21q-7 -1 -20 -2t-19 -2zM477 901l10 19l119 -68q-36 4 -53 4zM500 76q29 0 43 2l143 -84q-24 -4 -39 -4zM502 944l12 19l133 -78l-12 -19zM528 987l13 19l133 -78l-12 -19zM541 688q106 -17 157 -90zM553 1030l12 19l133 -76l-10 -21z M580 1073l12 19l133 -76l-12 -21zM588 84l33 6l141 -82l-33 -8zM606 1116l10 19l134 -76l-11 -21zM631 1159l12 19l133 -76l-12 -21zM655 100q5 2 27 13l139 -82l-24 -11zM657 1202l13 19l133 -76l-12 -21zM682 1245l4 4l72 -47zM713 127l22 12l137 -80l-22 -12zM760 158 l18 14l137 -78l-18 -16zM801 190l16 19l135 -78l-16 -18zM834 229l14 19l133 -76l-12 -20zM834 721q14 -8 38.5 -21.5t34 -19.5t24.5 -17t26 -24t24 -31l-117 68q-12 24 -30 45zM862 272l10 21l134 -78l-11 -20zM885 317l8 21l131 -76l-8 -22zM889 631l121 -70q7 -14 14 -35 l-123 72q-2 5 -6 16.5t-6 16.5zM901 365l6 22l129 -74l-4 -24zM909 559l127 -72q4 -20 4 -28l-125 71q-5 25 -6 29zM911 418l4 24l129 -75l-2 -25zM918 473v25l126 -74v-21v-6z" />
<glyph unicode="7" horiz-adv-x="1163" d="M139 999h142v86h419q-245 -489 -370 -847h-86v-125h325v125h-92q71 204 164 405t231 475v111h-733v-230zM158 979l147 -86h45l-147 86h-45zM223 90l127 -86h33l-147 86h-13zM225 907l23 -14h2zM258 979l148 -86h24v12l-127 74h-45zM291 90l147 -86h45l-147 86h-45z M303 1010l127 -74v27l-127 73v-26zM309 1065l148 -86h45l-148 86h-45zM391 90l148 -86h45l-148 86h-45zM410 1065l147 -86h45l-147 86h-45zM492 90l147 -86h45l-147 86h-45zM508 260h35l-29 16zM510 1065l121 -70l10 21l-86 49h-45zM524 303l131 -76l9 21l-132 76zM543 350 l131 -76l8 21l-131 78zM561 397l131 -75l8 20l-131 78zM580 444l133 -75l8 20l-133 76zM592 90l127 -74v27l-127 74v-27zM592 147l127 -73v26l-127 74v-27zM592 207l127 -76v27l-127 73v-24zM600 492l131 -76l10 20l-133 76zM610 1065l43 -25l11 21l-9 4h-45zM621 539 l131 -78l8 20l-131 78zM639 584l133 -76l10 20l-133 76zM659 631l134 -78l10 20l-133 78zM682 676l131 -76q1 3 10 21l-133 75zM702 721l134 -76l8 21l-131 75zM723 768l133 -78l10 21l-133 77zM745 813l134 -78l8 21l-131 78zM768 858l131 -76l10 21l-133 76zM788 903 l134 -76l10 21l-133 76zM811 948l133 -76l10 21l-133 76zM834 993l133 -75l10 18l-133 78zM856 1038l133 -75l10 18l-133 78zM879 1083l133 -77l10 20l-133 78zM895 1133l127 -74v26l-127 74v-26zM895 1190l127 -74v27l-127 74v-27zM895 1249l10 -6z" />
<glyph unicode="8" horiz-adv-x="1163" d="M147 436q0 89 46 165.5t124 121.5q-56 42 -88 102.5t-32 130.5q0 126 93.5 209.5t219.5 83.5q124 0 217.5 -85t93.5 -208q0 -70 -33 -131.5t-92 -101.5q76 -45 122 -122t46 -165q0 -142 -106.5 -239t-249.5 -97q-145 0 -253 96.5t-108 239.5zM283 440q0 -89 67 -151 t158 -62q89 0 156 62t67 151q0 87 -67.5 148t-155.5 61q-90 0 -157.5 -60t-67.5 -149zM305 440q0 17 2 25l129 -76q-1 -4 -2 -11.5t-2 -10.5zM307 406l127 -72q0 -16 6 -31l-123 72q-8 19 -10 31zM313 494q4 13 9 20l133 -76q-2 -3 -6 -10t-5 -10zM324 952q0 -75 55 -125.5 t131 -50.5q74 0 129 51.5t55 124.5q0 74 -55.5 125t-128.5 51q-77 0 -131.5 -50t-54.5 -126zM334 539q6 6 14 18l135 -78q-2 -3 -7 -9t-7 -9zM344 328l117 -68l4 -6q-75 16 -121 74zM344 952l2 13l129 -76q-2 -8 -2 -25l-127 74zM350 993q6 18 8 21l134 -76q-9 -13 -11 -20z M354 901q4 -13 21 -39l108 -61l6 -2l-12 30zM369 578q3 2 9 7t9 7l139 -80q-12 -6 -20 -14zM371 1038q2 3 7 9.5t7 9.5l137 -78q-12 -12 -16 -18zM408 92q31 -9 63 -12l150 -86q-22 0 -54 4zM408 1075q16 12 22 15l139 -80q-4 -2 -12 -6.5t-12 -6.5zM416 608q16 8 26 10 l142 -81q-20 -4 -29 -11zM463 1102q7 2 20 4t15 2l149 -86q-16 2 -41 -2zM483 627q8 2 25 2l18 -2l152 -86v-2q-28 4 -43 4h-6zM528 80q25 0 39 2l144 -82q-6 -1 -18.5 -3t-18.5 -3zM580 1092q18 -9 26 -15zM608 92q24 6 29 8l141 -82q-6 -1 -15.5 -4t-12.5 -4zM670 113 l24 12l137 -80l-22 -12zM700 1212q6 -4 67 -43.5t89 -62.5l-96 55q-11 6 -31 25.5t-29 25.5zM721 141l20 15l138 -78l-21 -17zM733 723l10 10l138 -78l-19 -16q-18 11 -129 84zM764 174q2 2 5.5 5t6 5.5t4.5 5.5l138 -77l-17 -17zM764 754l14 18l135 -78l-14 -18zM795 795 l12 18l133 -76q-2 -3 -6 -10t-6 -10zM801 211l14 18l133 -77l-12 -19zM803 1106l115 -68q11 -13 22 -39l-121 70q-3 12 -16 37zM819 838l8 22l131 -76l-8 -22zM827 627l115 -66q11 -14 27 -41l-119 68q-5 13 -23 39zM831 252l11 18l133 -75l-10 -21zM834 1030l124 -72 q1 -5 3.5 -15t3.5 -15l-125 73q-1 4 -6 29zM836 887l4 24l129 -75l-4 -25zM842 940v27l127 -74l2 -23v-4zM856 295q0 1 3.5 9t4.5 13l131 -75l-8 -23zM868 547l123 -72q8 -19 10 -33l-124 74q-1 5 -4.5 15.5t-4.5 15.5zM872 344l7 23l131 -76l-6 -23zM883 395l2 25l129 -74 v-24zM883 479l127 -73q1 -4 2 -13.5t2 -13.5l-129 74z" />
<glyph unicode="9" horiz-adv-x="1163" d="M117 858q0 172 110 281.5t283 109.5q163 0 274 -106t111 -269q0 -104 -86 -260l-279 -499h-172l256 422q-64 -27 -131 -27q-145 0 -255.5 101.5t-110.5 246.5zM254 877q0 -107 74.5 -176.5t183.5 -69.5q112 0 179 66.5t67 179.5q0 111 -70 178t-182 67q-104 0 -178 -70.5 t-74 -174.5zM276 868v9v18l130 -76q0 -4 -1.5 -12t-1.5 -12zM279 834l127 -72q6 -28 6 -29l-125 72q-2 5 -8 29zM281 545l204 -119q-34 10 -65 27t-80.5 51.5t-58.5 40.5zM281 924q5 20 6 22l131 -76q-1 -4 -3 -11t-3 -11zM297 973l10 18l133 -76l-10 -20zM305 762 q19 -31 54 -59t67 -35l16 -6l-18 30zM319 94h39l148 -86h-45q-114 66 -142 86zM324 1014l14 18l137 -78l-16 -16zM360 1051q3 3 6.5 5.5t8 5t6.5 3.5l139 -80q-16 -8 -22 -12zM410 1081q17 7 28 9l142 -82q-18 -4 -29 -9zM414 94h45l147 -86h-45zM420 496q32 -7 55 -7 l64 -36l-13 -19zM479 1098q8 2 27 2h16l154 -88q-32 4 -51 2zM514 94h29l4 6l133 -75l-10 -17h-8zM526 492q6 1 18.5 3t18.5 3l2 -2l-12 -21zM559 125l12 20l134 -77l-13 -21zM584 168l12 20l133 -77l-12 -19zM608 213l13 18l133 -75l-13 -21zM616 1077q18 -9 33 -18z M633 256l12 20l133 -77l-12 -19zM657 299l13 20l133 -75l-12 -21zM682 344l12 18l131 -75l-10 -21zM707 387l12 21l131 -78l-10 -19zM731 432l10 19l133 -76l-10 -21zM737 1206q163 -103 193 -135l-105 59q-6 3 -38.5 34t-49.5 42zM756 475l10 21l133 -78l-10 -19zM780 518 l11 21l133 -76l-11 -21zM805 563l10 19l133 -76l-10 -21zM829 606l11 21l133 -76l-10 -21zM852 651l10 21l131 -76l-8 -21zM864 1077l117 -67q3 -5 11.5 -18.5t11.5 -20.5l-121 67q-1 2 -19 39zM872 696l11 23l131 -78l-8 -20zM893 743l6 23l131 -76l-6 -22zM899 997 l123 -69q7 -17 10 -33l-125 72q-4 20 -8 30zM907 793l4 24l131 -76l-4 -22zM913 932l127 -74l2 -27l-127 74zM915 846l3 26l126 -73v-8v-19z" />
<glyph unicode=":" />
<glyph unicode=";" />
<glyph unicode="&#x3c;" />
<glyph unicode="=" />
<glyph unicode="&#x3e;" />
<glyph unicode="?" />
<glyph unicode="@" horiz-adv-x="1681" d="M49 655q0 150 58 286.5t157 235t235.5 156.5t286.5 58q143 0 277.5 -53t236 -144.5t163 -222.5t61.5 -277q0 -72 -21.5 -144t-60.5 -134t-103 -101t-141 -39q-126 0 -186 105q-97 -82 -230 -82q-149 0 -250.5 99t-101.5 247q0 145 103 245.5t249 100.5q110 0 195 -55v61 h135v-489q0 -48 21 -80.5t67 -32.5q54 0 92.5 29.5t58 77.5t27.5 95t8 97q0 118 -50.5 223.5t-133.5 179t-192 116t-224 42.5q-122 0 -233.5 -47t-191.5 -127t-127.5 -191.5t-47.5 -234.5q0 -122 47 -233.5t127 -191.5t191.5 -127.5t234.5 -47.5q166 0 310 86l69 -114 q-176 -107 -379 -107q-150 0 -286.5 58t-235.5 156t-157 234.5t-58 286.5zM207 653l129 -73v-27l-127 74zM207 684l2 25l129 -74l-2 -25zM211 592l127 -72l2 -28l-125 73zM213 739l4 25l129 -76l-4 -24zM221 528l125 -71l8 -31l-125 72q-4 10 -8 30zM223 791q4 16 6 22 l131 -76l-6 -20zM238 842l8 20l131 -76l-8 -20zM242 459l123 -72l12 -33l-123 72zM256 889l8 20l133 -78l-10 -20zM274 381l121 -68q9 -21 21 -39l-117 68q-4 6 -12.5 19.5t-12.5 19.5zM279 934q2 6 10 18l133 -75q-8 -11 -10 -21zM303 977l14 18l134 -77l-13 -19zM334 1018 l14 16l135 -78l-14 -16zM338 287l113 -64q16 -24 43 -51q-14 8 -37 21t-30.5 17.5t-22 13.5t-22.5 16.5t-19.5 19t-24.5 27.5zM367 1057q10 6 16 16l137 -80l-18 -16zM373 20l30 -18q22 -14 69 -32.5t67 -30.5q29 -16 86 -49t86 -50q-59 16 -125 49.5t-102 56.5t-111 74z M406 1092l18 16l137 -80l-18 -14zM449 1124l20 15l137 -78l-20 -14zM496 1155l22 14l139 -82l-24 -12zM549 1184l26 10l140 -82l-27 -10zM565 645q0 -92 62.5 -150.5t154.5 -58.5q64 0 116 29.5t79 85.5v186q-28 55 -80.5 87t-114.5 32q-90 0 -153.5 -60.5t-63.5 -150.5z M588 639v6v21l129 -76q0 -4 -1 -12.5t-1 -12.5zM592 604l125 -72l6 -30l-123 71q-4 9 -8 31zM594 694q1 3 3 10.5t3 10.5l133 -76q-2 -3 -8 -21zM608 1206q5 1 15.5 4t15.5 4l141 -81q-15 -3 -30 -9zM612 739q3 6 13 21l135 -78q-2 -3 -7.5 -9t-7.5 -9zM629 526l110 -65 q-70 13 -110 65zM641 -88q19 -4 61 -8l152 -88q-9 1 -27.5 3t-27.5 3zM643 780q3 3 9.5 8.5t9.5 8.5l137 -80q-3 -2 -9.5 -7.5t-9.5 -7.5zM680 1223l35 6l145 -84q-13 0 -37 -4zM688 813q15 8 27 10l141 -82q-21 -4 -29 -10zM694 289q17 -6 60 -10l149 -86q-17 0 -53 4z M754 834l145 -84q29 0 49 -5l-2 3l-151 88h-13q-5 0 -14 -1t-14 -1zM764 -100h47l145 -86h-43zM764 1233h22h23l149 -86q-8 0 -24 1t-23 1zM809 279q6 1 18.5 2t18.5 2l143 -82q-5 -1 -35 -6zM860 -98l37 4l143 -82l-34 -6zM874 1227q34 -5 67 -17.5t52.5 -23t59.5 -35.5 t61 -37q-8 3 -44 12t-40 11zM887 293q20 4 28 8l142 -80q-21 -8 -29 -10zM940 -86l33 8l141 -82l-33 -8zM948 315l23 13l139 -80l-23 -12zM997 344l11 6q2 -5 7.5 -12t6.5 -8zM1008 -68l30 9l140 -80l-29 -11zM1071 -45l25 10l139 -80l-25 -12zM1104 170l43 -29l-39 25z M1126 -20l25 12l137 -80l-22 -12zM1135 498v10v16l127 -75v-17l-9 -4zM1135 555v27l127 -74v-27zM1135 612v27l127 -74v-26zM1135 672v24l127 -73v-25zM1135 729v27l127 -74v-27zM1135 786v27l127 -74v-26zM1135 846v24l127 -73v-27zM1135 903v27l127 -76v-25zM1135 961v26 l127 -74v-26zM1137 117l116 -70l25 -39l-117 68zM1139 463l75 -45h-14q-45 -3 -61 45zM1145 258q36 -4 53 -4l148 -84l-21 -2l-25 2zM1178 8l16 10l-4 9l117 -68l16 -27l-8 -4zM1225 1278q20 -13 60.5 -39.5t72 -48t57.5 -43.5l-92 51q-14 8 -50 39.5t-48 40.5zM1247 258 q23 4 33 8l139 -82q-8 -4 -28 -8zM1313 279l24 12l140 -80l-25 -14zM1364 307l20 15l136 -80q-3 -2 -9.5 -7.5t-9.5 -7.5zM1386 1130q11 -6 33 -17.5t29.5 -16.5t22.5 -14t23 -16.5t18.5 -19t21.5 -26.5l-113 65q-25 33 -35 45zM1407 340l16 16l133 -77l-14 -17zM1442 379 l12 18l133 -78l-12 -18zM1452 1034l119 -67q5 -7 12.5 -21.5t9.5 -17.5l-120 69zM1468 420l13 18l133 -76l-12 -20zM1491 954l123 -69l14 -35l-123 72zM1493 463l10 22l131 -77l-8 -21zM1513 510l7 22l131 -75l-6 -23zM1518 881l124 -72q1 -5 4.5 -15.5t4.5 -15.5l-125 72z M1528 559l4 25l131 -76l-4 -23zM1534 815l125 -74l6 -28l-127 73zM1538 612l2 25l131 -76l-4 -24zM1542 752l127 -74l2 -27l-127 74zM1544 666v26l129 -74v-8l-2 -18z" />
<glyph unicode="A" horiz-adv-x="1443" d="M88 94h43l150 -86h-45q-15 8 -47.5 25t-57.5 31.5t-43 29.5zM109 115v127h114l303 864h-71v125h276l348 -989h115v-127h-363v127h115l-90 254h-410l-90 -254h115v-127h-362zM186 94h45l150 -86h-45zM287 94h45l149 -86h-45zM387 94h45l150 -86h-45zM389 266l8 23l43 -25 h-45zM406 315l8 23l131 -78l-8 -20zM422 365l8 20l131 -76l-6 -22zM440 412l6 22l134 -76l-9 -22zM457 461l6 14h12l150 -86h-35l-2 -6zM481 1083h15l-2 -8zM487 94h7v23l127 -74v-27zM492 623h319l-160 454zM494 150v26l127 -76v-24zM494 207v26l127 -73v-27zM524 653l8 21 l52 -29h-45zM530 475h45l150 -86h-45zM541 700l8 23l131 -76v-2h-41zM559 750l6 20l133 -76l-8 -20zM575 797l9 22l131 -76l-8 -22zM592 846l8 20l129 -73l2 -5l-8 -18zM608 893l8 22l89 -51l10 -33zM627 942l6 21l45 -25l12 -33zM631 475h45l149 -86h-45zM643 989l8 23 l2 -2l11 -33zM731 475h45l82 -47l10 -33zM750 1243q78 -42 124 -76l11 -26l-123 71zM776 1171l123 -71l10 -33l-123 72zM801 1098l123 -70l12 -33l-123 70zM811 94h23l149 -86h-45zM827 1026l123 -72l11 -32l-123 71zM831 475h11l2 -6zM852 952l123 -69l12 -33l-123 70z M879 881l122 -72l11 -33l-123 72zM889 94h45l149 -86h-45zM903 807l123 -70l12 -32l-123 69zM930 735l123 -71l10 -33l-123 71zM954 662l123 -70l13 -33l-123 70zM981 590l123 -72l10 -33l-123 72zM989 94h45l150 -86h-45zM1006 516l122 -70l13 -32l-123 69zM1032 444 l123 -71l10 -33l-123 72zM1057 371l123 -72l12 -31l-123 70zM1083 299l60 -35h-45l-4 2zM1090 94h45l149 -86h-45zM1192 94h22v12l129 -73v-25h-4zM1214 137v27l129 -74v-27zM1214 197v24l129 -74v-26zM1214 254v10l109 -71z" />
<glyph unicode="B" horiz-adv-x="1214" d="M86 94h4l150 -86h-25zM98 1075l95 -55v-8zM106 115v127h107v862h-107v129l504 -2q136 0 231 -94.5t95 -231.5q0 -74 -41.5 -132t-112.5 -93q70 -36 115 -98t45 -136q0 -136 -94.5 -233.5t-231.5 -97.5h-510zM139 1083h45l9 -4v-26zM145 94h45l150 -86h-45zM246 94h45 l149 -86h-45zM346 94h45l150 -86h-45zM358 242h260q70 0 118 64t48 138q0 66 -50 117t-116 51h-260v-370zM358 739h252q68 0 118 51t50 119q0 72 -49 133.5t-119 61.5h-252v-365zM379 264v10l20 -10h-20zM379 307v27l121 -70h-45zM379 365v26l129 -74v-26zM379 422v27 l129 -74v-27zM379 481v25l129 -74v-24zM379 539v26l129 -73v-27zM379 770v27l61 -35h-45zM379 829v25l129 -74v-18h-12zM379 887v26l129 -75v-25zM379 944v27l129 -74v-27zM379 1004v24l129 -74v-26zM379 1061v22h6l147 -86h-24v-10zM391 590h45l148 -86h-45zM440 1083h45 l150 -86h-47zM446 94h46l149 -86h-45zM492 590h45l147 -86h-45zM541 1083h45l149 -86h-45zM547 94h45l149 -86h-45zM592 590h29q12 0 18 -2q10 -6 33 -17t32.5 -17t23 -19.5t22.5 -30.5h-5h-6zM645 94q6 1 18.5 3t18.5 3l143 -82q-18 -6 -34 -6zM721 111q14 3 27 10l139 -82 q-4 -2 -12.5 -5t-12.5 -5zM778 135l23 12l137 -79l-20 -13zM825 166l19 14l137 -78l-18 -16zM831 684l21 14l135 -80l-18 -14zM836 1171q120 -70 163 -120l-110 63q-32 41 -53 57zM864 201l17 16l135 -78l-17 -16zM874 717l17 16l135 -78l-16 -16zM897 240l12 18l133 -76 l-10 -20zM903 610q14 -8 44.5 -24t42 -23.5t29 -24t30.5 -38.5l-117 67q-4 8 -29 43zM907 756q9 9 15 18l133 -78l-13 -18zM920 1065l118 -70q13 -20 19 -37l-123 72q-7 21 -14 35zM924 283l10 20l131 -76q-1 -5 -4 -11.5t-4 -8.5zM934 799l8 20l131 -76l-6 -20zM944 330 l6 20l131 -74l-6 -22zM946 991l125 -71q4 -9 8 -31l-127 72zM950 524l123 -69q7 -17 10 -33l-125 72q-5 23 -8 30zM950 846q4 16 4 24l129 -75l-2 -23zM956 379l5 24l129 -75l-3 -23zM956 901v27l127 -74l2 -27zM963 434v27l127 -74q2 -8 2 -25v-2z" />
<glyph unicode="C" horiz-adv-x="1300" d="M96 676q0 154 65 285t188.5 211.5t279.5 80.5q246 0 393 -184h78v-131h-160q-49 85 -131 131.5t-180 46.5q-115 0 -204.5 -65t-134 -164t-44.5 -211q0 -85 26 -164.5t73.5 -142.5t121.5 -100.5t162 -37.5q126 0 209.5 61.5t140.5 180.5l129 -61q-51 -145 -185.5 -231.5 t-291.5 -86.5q-158 0 -282 81t-188.5 213t-64.5 288zM266 641l129 -74v-26l-127 73zM266 674v2v22l129 -73v-25zM270 729l2 25l131 -74l-4 -25zM274 580l125 -74l7 -29l-125 74zM279 782l6 23l131 -76l-6 -22zM291 512l123 -72q2 -5 6 -16t6 -16l-123 71q-6 15 -12 33z M293 834q5 16 8 20l131 -76l-8 -20zM311 881l11 18l133 -76l-11 -20zM326 434l118 -69q6 -11 25 -39l-115 65q-16 20 -28 43zM336 924l10 18l135 -76l-12 -18zM365 965q8 12 14 18l135 -78l-16 -18zM399 1004l17 14l137 -78l-18 -16zM440 1036l23 15l137 -80q-4 -2 -11 -6.5 t-11 -6.5zM461 98q37 -12 78 -18l153 -90q-32 4 -65 16t-52 22.5t-58.5 35.5t-55.5 34zM492 1065l24 12l141 -82q-12 -3 -26 -10zM553 1087l35 7l145 -84q-6 -1 -18.5 -2t-18.5 -2zM604 72h47l146 -84q-6 0 -19 -1t-20 -1h-4zM641 1096q30 -1 61 -12.5t51.5 -23.5t54.5 -34 t52 -33q-35 12 -69 15zM698 76l37 6l144 -84l-35 -6zM776 90l29 8l141 -80l-28 -10zM838 111l26 12l140 -80l-25 -12zM893 137l22 15l140 -80l-23 -15zM926 1186q129 -85 143 -96h-16q-29 16 -72.5 52t-54.5 44zM942 168l21 14l135 -80l-19 -14zM952 915h45l148 -86h-45z M985 201l16 16l138 -78l-19 -16zM1022 238l16 16l136 -78l-17 -16zM1053 915h45l147 -86h-45zM1057 276l12 19l135 -78l-14 -18zM1085 317l11 19l133 -76l-10 -20zM1110 360l8 21l133 -76l-8 -20zM1120 934v27l129 -74v-27zM1120 991v27l129 -74v-26zM1120 1051v24l129 -74 v-24zM1128 408l7 14l129 -84l-2 -6z" />
<glyph unicode="D" horiz-adv-x="1265" d="M104 1083h43l64 -36v-27q-10 5 -33.5 18t-41 23.5t-32.5 21.5zM109 94h45l147 -86h-45zM127 115v127h104v862h-104v127h414q151 0 274.5 -75.5t192.5 -202.5t69 -277q0 -151 -68 -279t-191.5 -205t-276.5 -77h-414zM203 1083h8v-6zM209 94h45l147 -86h-45zM309 94h45 l148 -86h-45zM377 242h174q110 0 197 65t131.5 163.5t44.5 205.5q0 108 -45 205t-132 160t-196 63h-174v-862zM397 274v27l66 -37h-45zM397 332v26l129 -73v-21h-8zM397 391v25l129 -74v-27zM397 449v26l129 -74v-26zM397 506v26l129 -73v-27zM397 565v25l129 -74v-27z M397 623v26l129 -76v-24zM397 680v27l129 -74v-27zM397 737v27l129 -74v-26zM397 797v24l129 -73v-25zM397 854v27l129 -74v-27zM397 911v27l129 -74v-26zM397 971v24l129 -73v-27zM397 1028v27l129 -74v-27zM403 1083h46l147 -86h-45zM410 94h45l147 -86h-45zM504 1083h45 l149 -86h-47zM510 94h45l145 -84l-30 -2h-13zM604 98l37 4l143 -82l-34 -6zM616 1075q95 -17 170 -96q-2 0 -170 96zM680 111q5 2 15.5 5t15.5 5l141 -82l-31 -10zM743 133l27 10l139 -80l-24 -12zM801 158l22 12l138 -78q-5 -5 -23 -14zM850 188l18 15l138 -80l-19 -14z M893 221l18 15l136 -78l-19 -17zM928 1096q6 -4 23.5 -14t22 -12.5t18 -10.5t17.5 -11t14.5 -10.5t16 -12.5t14 -12.5t16 -15.5t15.5 -18l-108 63q-40 45 -49 54zM932 256l16 16l135 -77q-2 -2 -7.5 -8.5t-8.5 -8.5zM967 295l14 16l133 -75l-14 -19zM995 334l15 20l133 -78 l-13 -18zM1014 989l116 -67q21 -31 25 -41l-121 69q-18 36 -20 39zM1022 377l12 20l131 -75l-10 -21zM1044 422l11 20l131 -75l-8 -21zM1055 907l121 -71l14 -33l-123 69zM1065 469l6 23l131 -76l-6 -23zM1079 518q5 20 6 23l129 -74l-4 -25zM1079 836l125 -72q4 -22 8 -33 l-127 74q-1 5 -3 15.5t-3 15.5zM1090 569l4 25l131 -74l-4 -24zM1092 768l127 -72l4 -28l-127 73zM1098 625l2 24l127 -74v-26zM1098 707l129 -74v-27l-127 74z" />
<glyph unicode="E" horiz-adv-x="1206" d="M129 94h14l148 -86h-35zM129 1083h6l98 -57v-14zM150 115v127h106v862h-106v127h800v-316h-151v189h-400v-356h336v-127h-336v-379h400v188h151v-315h-800zM190 1083h43v-24zM199 94h45l147 -86h-45zM299 94h45l148 -86h-46zM399 94h45l148 -86h-45zM422 264v17l29 -17 h-29zM422 313v25l127 -74h-43zM422 371v26l127 -73v-27zM422 428v27l127 -74v-27zM422 487v25l127 -74v-26zM422 545v26l127 -75v-25zM422 776v27l57 -35h-45zM422 834v26l127 -74v-18h-14zM422 893v25l127 -74v-25zM422 950v27l127 -74v-26zM422 1008v26l127 -73v-27z M422 1067v16h16l148 -86h-37v-6zM428 600h45l148 -86h-46zM494 1083h45l147 -86h-45zM500 94h45l147 -86h-45zM528 600h45l148 -86h-45zM594 1083h45l137 -79v-7h-35zM600 94h45l148 -86h-45zM629 600h45l147 -86h-45zM694 1083h45l37 -22v-27zM700 94h45l148 -86h-45z M729 600h27v8l129 -73v-21h-8zM756 641v27l129 -76v-25zM756 698v27l129 -74v-26zM756 758v10l129 -84v-2zM801 94h45l147 -86h-45zM819 895h45l148 -86h-45zM862 838l49 -29h-6zM901 94h45l148 -86h-45zM920 895h45l135 -78v-8h-33zM971 111v26l129 -74v-26zM971 170v25 l129 -74v-25zM971 227v27l129 -74v-26zM971 285v26l129 -73v-27zM971 344v25l129 -74v-27zM971 401v27l129 -76v-24zM971 924v24l129 -74v-26zM971 981v27l129 -76v-25zM971 1038v27l129 -74v-26zM971 1098v24l129 -73v-27zM971 1155v27l129 -76v-25zM971 1212v27l129 -74 v-26z" />
<glyph unicode="F" horiz-adv-x="1204" d="M123 94h43l147 -86h-45q-12 7 -45.5 25t-57 32t-42.5 29zM123 1083h37l69 -41v-26q-50 27 -106 67zM143 115v127h107v862h-107v127h801v-316h-151v189h-398v-359h383v-122h-383v-381h111v-127h-363zM215 1083h14v-8zM221 94h45l148 -86h-45zM322 94h45l147 -86h-45z M416 270v27l59 -33h-45zM416 330v24l129 -73v-27zM416 387v27l129 -76v-25zM416 444v27l129 -74v-26zM416 504v24l129 -73v-27zM416 561v27l129 -76v-25zM416 793v26l90 -51h-45zM416 850v27l129 -74v-27zM416 909v25l129 -74v-26zM416 967v26l129 -75v-25zM416 1024v27 l129 -74v-27zM416 1083h45l147 -86h-45zM422 94h45l147 -86h-45zM446 600h46l149 -84h-45zM516 1083h45l148 -86h-45zM522 94h6v23l127 -74v-27zM528 147v27l127 -74v-26zM528 207v24l127 -73v-25zM549 600h45l147 -84h-45zM616 1083h46l110 -63v-23h-8zM649 600h45l148 -84 h-45zM717 1083h45l10 -6v-26zM750 600h45l133 -78v-6h-31zM772 895h14l148 -86h-35zM799 629v26l129 -73v-27zM799 686v27l129 -74v-27zM799 745v23l129 -86v-10zM842 895h45l147 -86h-45zM942 895h23v12l129 -73v-25h-4zM965 940v25l129 -74v-27zM965 997v27l129 -76v-24z M965 1055v26l129 -73v-27zM965 1112v27l129 -74v-27zM965 1171v25l129 -74v-24zM965 1229v24l129 -86v-12z" />
<glyph unicode="G" horiz-adv-x="1400" d="M98 676q0 154 65 285t188.5 211.5t279.5 80.5q191 0 323 -112l-10 114h158v-317h-127h-31q-53 86 -133 132t-180 46q-114 0 -203.5 -65t-134.5 -164t-45 -211q0 -81 24.5 -158.5t69.5 -141t116.5 -102t157.5 -38.5q136 0 238.5 76t134.5 208h-311v127h471v-536h-137v151 q-73 -79 -171 -120.5t-206 -41.5q-160 0 -284 78.5t-188.5 209t-64.5 288.5zM268 680l2 25l129 -74l-2 -27zM270 647l127 -74l2 -26l-127 71zM272 735l4 25l130 -76l-5 -25zM276 586l125 -74l7 -29l-125 72zM283 788l4 23l131 -76l-6 -22zM293 518l123 -72q2 -5 5 -15.5 t5 -16.5l-121 71zM297 838l8 20l131 -76l-8 -20zM315 885l11 18l133 -76l-10 -20zM326 440l118 -69q3 -6 10.5 -18.5t10.5 -18.5l-115 67q-11 14 -24 39zM340 928l12 18l135 -78l-14 -18zM369 969q6 10 16 16l135 -78l-16 -16zM406 1006q2 2 5 5.5t5.5 6t5.5 4.5l137 -80 l-18 -14zM426 326l66 -39q-20 7 -66 39zM446 1040l23 13l139 -80l-22 -12zM453 109q5 -2 25.5 -6.5t37.5 -9t19 -5.5l155 -90q-32 4 -66 17t-54.5 24.5t-59.5 35.5t-57 34zM498 1069q10 2 26 10l142 -82q-14 -3 -27 -10zM563 1090q24 4 37 4l145 -84q-14 0 -38 -4zM604 80 q24 -3 47 0l146 -86h-35h-8zM653 1096q30 -1 61.5 -12.5t52 -23.5t55 -34.5t52.5 -32.5l3 -2q-42 15 -72 17zM682 498h45l147 -84h-45zM700 82q30 5 35 6l144 -84q-5 -1 -35 -6zM776 96l31 8l139 -79l-28 -11zM782 498h45l107 -62l-12 -18zM840 117l24 12l140 -80l-25 -12z M877 991q18 -18 36 -47h-2q-22 35 -34 47zM883 498h45l28 -17q-1 -3 -2.5 -6t-4 -7t-3.5 -7zM895 143l23 15l73 -43v-25h43l148 -86h-45zM942 174l21 14l28 -16v-27zM963 915h45l149 -86h-45zM985 207l6 4v-6zM1063 915h45l143 -81v-5h-39zM1090 90h45l147 -86h-45z M1124 938v27l127 -74v-27zM1124 997v27l127 -76v-24zM1124 1055v26l127 -73v-27zM1124 1112v27l127 -74v-27zM1124 1171v25l127 -74v-24zM1124 1229v26l127 -73v-27zM1171 100v27l127 -74v-26zM1171 158v26l127 -73v-27zM1171 217v25l127 -74v-27zM1171 274v27l127 -76v-24z M1171 332v26l127 -73v-27zM1171 391v25l127 -74v-27zM1171 449v24l127 -74v-24zM1171 506v26l127 -73v-27zM1171 563v27l127 -74v-27zM1171 623v24l127 -74v-24z" />
<glyph unicode="H" horiz-adv-x="1513" d="M109 115h362v127h-113v401h646v-401h-111v-127h362v127h-106v864h106v125h-362v-125h111v-338h-646v338h113v125h-362v-125h104v-864h-104v-127zM117 1083l76 -43v27l-31 16h-45zM125 94l147 -86h45l-147 86h-45zM193 23l22 -15h4zM225 94l150 -86h45l-150 86h-45z M326 94l149 -86h45l-149 86h-45zM379 295l55 -31h45l-100 58v-27zM379 352l129 -73v26l-129 74v-27zM379 412l129 -76v26l-129 74v-24zM379 469l129 -74v25l-129 76v-27zM379 526l129 -73v26l-129 74v-27zM379 584l129 -74v27l-129 73v-26zM379 817l49 -29h45l-94 54v-25z M379 874l129 -73v26l-129 74v-27zM379 932l129 -74v27l-129 73v-26zM379 991l129 -76v27l-129 74v-25zM379 1049l129 -74v20l4 4l-133 76v-26zM416 623l147 -86h45l-147 86h-45zM418 1083l149 -86q23 3 45 0l-149 86h-45zM426 94l149 -86h46l-150 86h-45zM492 115l129 -74 v25l-129 75v-26zM492 172l129 -74v27l-129 74v-27zM492 229l129 -73v14q0 11 -54 43l-75 43v-27zM492 1100l129 -74v25l-129 75v-26zM492 1157l129 -74v27l-129 74v-27zM492 1217l129 -76l-3 26q-20 9 -126 74v-24zM516 623l148 -86h45l-148 86h-45zM616 623l148 -86h45 l-147 86h-46zM717 623l147 -86h45l-147 86h-45zM817 623l148 -86h14l4 -2v18l-121 70h-45zM872 94q4 -4 63.5 -45t65.5 -41h21zM903 1063q7 -5 42 -28t36 -23q2 -4 2 -11v15zM918 623l65 -39v26l-20 13h-45zM922 1083l61 -34v24l-16 10h-45zM928 94l149 -86h45l-149 86h-45z M1028 94l150 -86h45l-150 86h-45zM1128 94l150 -86h45l-149 86h-46zM1169 264h13l-13 6v-6zM1169 303l68 -39h39v-22l129 -74v10q-79 49 -107 72v4l-129 74v-25zM1169 360l129 -73v24l-129 76v-27zM1169 418l129 -74v27l-129 73v-26zM1169 477l129 -76v27l-129 74v-25z M1169 535l129 -74v24l-129 76v-26zM1169 592l129 -74v27l-129 73v-26zM1169 649l129 -74v27l-129 74v-27zM1169 709l129 -74v24l-129 74v-24zM1169 766l129 -74v27l-129 74v-27zM1169 823l129 -73v26l-129 74v-27zM1169 883l129 -76v27l-129 73v-24zM1169 940l129 -74v25 l-129 76v-27zM1169 997l129 -73v26l-129 74v-27zM1169 1057l129 -76q0 15 0.5 15.5t12.5 0.5h4l-146 84v-24zM1223 1083l147 -86h25l10 4v3l-137 79h-45zM1229 94l149 -86h23q4 0 4 4v6l-131 76h-45zM1264 1253h10h-10zM1276 125l129 -74v27l-129 74v-27zM1276 182l129 -73 v26l-129 74v-27zM1276 1110l129 -74v27l-129 74v-27zM1276 1169l129 -75v26l-129 74v-25zM1276 1227l129 -74v14q-116 78 -129 86v-26z" />
<glyph unicode="I" horiz-adv-x="739" d="M102 94h2l148 -86h-23zM123 115v127h106v862h-106v127h356v-127h-106v-862h106v-127h-356zM125 1067l82 -47v-8zM154 1083h45l8 -6v-26zM160 94h45l147 -86h-45zM260 94h45l148 -86h-45zM360 94h46l147 -86h-45zM395 264v10l19 -10h-19zM395 305v27l127 -74v-10l107 -70 v-8l-129 76v18h-31zM395 365v24l127 -74v-24zM395 422v27l127 -74v-27zM395 479v27l127 -74v-26zM395 539v24l127 -74v-26zM395 596v27l127 -74v-27zM395 653v27l127 -74v-26zM395 713v24l127 -73v-27zM395 770v27l127 -76v-25zM395 827v27l127 -74v-26zM395 885v26l127 -73 v-27zM395 944v25l127 -74v-25zM395 1001v27l127 -74v-26zM395 1059v24h4l148 -86h-25v-12zM455 1083h45l129 -75v-11h-27zM461 94h39v2l129 -73v-15h-21zM500 129v27l129 -74v-27zM500 186v27l129 -74v-26zM500 1114v27l129 -74v-27zM500 1171v27l129 -74v-26zM500 1231v20 l129 -84v-10z" />
<glyph unicode="J" horiz-adv-x="974" d="M121 150q21 -14 53 -26.5t45 -19.5l158 -90q-21 3 -44.5 11.5t-41.5 16.5t-46 25t-41 26t-44 30t-39 27zM125 172l63 137q48 -45 105 -45q88 0 136 56.5t48 146.5v637h-121v127h361v-127h-92v-637q0 -151 -91.5 -250.5t-240.5 -99.5q-91 0 -168 55zM182 344l11 -8l6 -4 l6 -4q1 0 4 -2t4 -2q4 -5 6 -5q4 -4 6 -4q4 -4 6 -4l7 -4l6 -4l6 -4l6 -4l8 -6q-33 9 -82 55zM291 96q16 -2 41 2l145 -84q-24 -4 -39 -4zM348 1073l109 -61v-8zM377 104q17 3 31 9l139 -82q-3 -1 -13 -4t-16 -4zM387 1083h45l25 -14v-25zM440 125l25 12l139 -80l-24 -12z M492 154l20 14l137 -80l-20 -14zM535 186l16 17l135 -78l-16 -16zM569 225l13 19l135 -78l-15 -19zM596 266l10 21l133 -76l-10 -21zM618 313l7 21l133 -76l-8 -22zM633 362l6 23l129 -76l-4 -22zM643 414l2 24l129 -73l-2 -25zM645 471v25l129 -74v-27zM645 528v27l129 -76 v-24zM645 586v26l129 -73v-27zM645 645v25l129 -74v-27zM645 702v27l129 -76v-24zM645 760v26l129 -73v-27zM645 817v27l129 -74v-27zM645 877v24l129 -74v-24zM645 934v27l129 -74v-27zM645 991v27l129 -74v-26zM645 1051v24l137 -78h-8v-22zM688 1083h45l133 -77v-9h-28z M739 1112v27l127 -74v-27zM739 1169v27l127 -74v-26zM739 1229v24l127 -86v-14z" />
<glyph unicode="K" horiz-adv-x="1294" d="M137 115v127h107v862h-105v127h363v-127h-115v-361l420 361v127h256v-127h-88l-490 -412l459 -450h119v-127h-301v127l-375 374v-374h113v-127h-363zM145 1083h45l31 -18v-27zM152 94h45l147 -86h-45zM252 94h45l147 -86h-45zM352 94h45l148 -86h-45zM410 293v26l96 -55 h-45zM410 350v27l127 -74v-27zM410 410v24l127 -74v-24zM410 467v27l127 -74v-27zM410 524v27q38 -12 94 -82zM410 815v27l34 -21l-18 -16zM410 872v27l73 -43l-16 -16zM410 930v26l114 -65l-18 -17zM410 989v25l127 -74v-25zM410 1047v26l129 -76h-2v-24zM446 1083h46 l147 -86h-45zM453 94h45l147 -86h-45zM520 113v26l129 -73v-27zM520 170v27l129 -74v-27zM520 229v25q95 -51 129 -76v-24zM520 692l19 17l135 -80l-19 -15zM522 1098v24l129 -73v-27zM522 1155v27l129 -76v-25zM522 1212v27l129 -74v-26zM561 727l19 16l135 -79l-19 -15z M590 621q46 -20 92 -53t72 -68q-110 50 -164 121zM602 762l19 14l135 -78l-19 -16zM643 797l19 14l135 -78l-19 -16zM682 829l18 17l138 -78l-19 -16zM723 864l18 17l138 -80l-19 -15zM733 479q45 -21 91 -53t73 -66q-111 49 -164 119zM754 94h45l147 -86h-45zM764 899 l18 16l138 -79l-19 -15zM805 934l18 14l138 -78l-19 -16zM846 969l18 14l137 -78l-18 -16zM854 94h45l148 -86h-46zM874 340q107 -56 119 -76h-30q-30 10 -89 76zM887 1001l18 17l137 -80l-18 -14zM928 1036l18 17l137 -80l-18 -15zM954 94h45l148 -86h-45zM969 1071l14 12 h10l148 -86h-29l-6 -4zM1049 1083h34v4l129 -73v-17h-16zM1055 94h28v8l129 -73v-21h-10zM1083 135v27l129 -76v-25zM1083 193v26l129 -74v-26zM1083 252v12l129 -86v-2zM1083 1120v27l129 -74v-26zM1083 1178v26l129 -74v-26zM1083 1237v16l129 -86v-6z" />
<glyph unicode="L" horiz-adv-x="1155" d="M61 94h2l150 -86h-23zM84 115v127h106v862h-106v127h362v-127h-112v-862h387q23 0 43 20t20 43v141h142v-331h-842zM90 1065l78 -45v-8zM113 1083h45l10 -6v-26zM119 94h47l147 -86h-45zM219 94h47l148 -86h-45zM322 94h45l147 -86h-45zM354 264v10l19 -10h-19zM354 305 v27l119 -68h-45zM354 365v24l129 -74v-26zM354 422v27l129 -76v-25zM354 479v27l129 -74v-26zM354 537v26l129 -74v-26zM354 596v27l129 -76v-25zM354 653v27l129 -74v-26zM354 711v26l129 -73v-27zM354 770v25l129 -74v-25zM354 827v27l129 -74v-26zM354 885v26l129 -73 v-27zM354 944v25l129 -74v-27zM354 1001v27l129 -76v-24zM354 1059v24h4l150 -86h-25v-12zM414 1083h45l137 -79v-7h-33zM422 94h45l147 -86h-45zM467 1110v27l129 -74v-27zM467 1169v25l129 -74v-26zM467 1227v26q26 -14 75 -48.5t54 -37.5v-14zM522 94h45l148 -86h-45z M623 94h45l147 -86h-45zM723 94h45l147 -86h-45zM823 94h45l148 -86h-45zM924 94h22v12l129 -73v-25h-4zM946 137v27l129 -74v-27zM946 197v24l129 -74v-24zM946 254v27l129 -74v-27zM946 311v27l129 -74v-26zM946 371v24l129 -73v-25zM946 428v27l129 -74v-27z" />
<glyph unicode="M" horiz-adv-x="1779" d="M104 1069h2l105 -59v-13zM125 115v125h106v850h-106v141h354l355 -965l358 965h336v-141h-107v-850h107v-125h-363v125h119v858l-391 -983h-125l-395 985v-860h114v-125h-362zM145 92h45l150 -86h-45zM162 1069h47l2 -2v-27zM188 35l52 -29h-9zM246 92h45l149 -86h-45z M346 92h45l150 -86h-45zM395 262v2l4 -2h-4zM395 297v27l105 -62h-45zM395 354v27l127 -74v-26zM395 414v24l127 -73v-27zM395 471v27l127 -76v-25zM395 528v27l127 -74v-26zM395 588v24l127 -73v-27zM395 645v27l127 -76v-25zM395 702v27l127 -74v-26zM395 760v26l105 -61 l14 -33zM395 819v25l74 -43l14 -33zM395 877v26l45 -26l13 -35zM395 934v27l15 -9l12 -34zM446 92h46l145 -84v-2h-41zM494 1251q16 -8 34.5 -19.5t30.5 -20.5t33.5 -24.5t30.5 -21.5l6 -18l-123 72zM510 115v26l127 -73v-27zM510 172v27l127 -74v-27zM510 231v25 q57 -30 127 -80v-20zM522 1178l123 -72l10 -33l-123 72zM549 1104l123 -72l12 -33l-123 72zM575 1030l123 -72l13 -32l-123 71zM602 956l123 -71l12 -33l-123 72zM629 883l123 -72l12 -33l-123 72zM657 809l123 -72l11 -32l-123 71zM684 735l123 -69l12 -35l-123 71z M711 662l123 -70l12 -33l-123 70zM737 588l123 -70l12 -33l-122 70zM754 92h41l147 -86h-45q-119 68 -143 86zM764 514l115 -65l-9 -21l-94 53zM793 442l67 -41l-8 -20l-49 27zM819 369l25 -15l-8 -22l-5 2zM850 92h45l143 -82l-2 -4h-39zM915 113l9 20l133 -76l-8 -22z M934 160l8 20l133 -76l-8 -22zM952 207l11 20l131 -75l-9 -23zM973 254l8 20l131 -75l-8 -23zM991 301l8 21l131 -76l-8 -21zM1010 348l8 21l131 -76l-8 -21zM1028 395l8 21l131 -76l-8 -21zM1047 442l8 21l133 -76l-8 -20zM1065 489l8 21l133 -76l-8 -20zM1083 537l9 20 l133 -76l-8 -20zM1102 584l10 20l131 -76l-8 -20zM1122 631l8 20l132 -76l-9 -20zM1141 678l8 20l113 -65v-27zM1151 92h45l147 -86h-45zM1159 725l8 20l95 -55v-24zM1178 772l8 21l76 -43v-27zM1196 819l8 21l58 -33v-27zM1214 866l9 21l39 -23v-24zM1233 913l10 21l19 -10 v-27zM1251 92h45l148 -86h-45zM1253 961l9 20v-27zM1352 92h45l147 -86h-45zM1444 270v27l59 -35h-45zM1444 330v24l127 -73v-25zM1444 387v27l127 -74v-27zM1444 444v27l127 -74v-26zM1444 504v24l127 -73v-27zM1444 561v27l127 -76v-25zM1444 618v27l127 -74v-26z M1444 678v24l127 -73v-27zM1444 735v27l127 -76v-24zM1444 793v26l127 -74v-26zM1444 850v27l127 -74v-27zM1444 909v25l127 -74v-24zM1444 967v26l127 -73v-27zM1444 1024v27l127 -74v-27zM1452 92h45l148 -86h-46zM1468 1069h45l148 -86h-45zM1548 94v27l129 -74v-27z M1548 152v26l129 -74v-26zM1548 211v25l129 -74v-25zM1548 1079v27l129 -74v-26zM1548 1139v24l129 -73v-27zM1548 1196v27l129 -76v-25z" />
<glyph unicode="N" horiz-adv-x="1437" d="M111 1081h45l59 -34v-27zM117 92h45l147 -86h-45zM131 1102v129h299l510 -916q6 30 6 35v752h-125v129h363v-129h-97v-987h-188l-518 925v-800h115v-125h-363v125h103v862h-105zM211 1081h4v-2zM217 92h45l148 -86h-45zM317 92h45l148 -86h-45zM401 274v27l70 -39h-45z M401 334v24l129 -73v-25zM401 391v27l129 -74v-27zM401 449v26l129 -74v-26zM401 508v24l129 -73v-27zM401 565v27l129 -74v-26zM401 623v26l129 -74v-26zM401 682v25l129 -74v-27zM401 739v27l129 -76v-24zM401 797v26l113 -65l16 -29v-6zM401 854v27l64 -37l22 -39z M401 913v25l17 -8l20 -39zM418 92h45l147 -86h-45zM442 1253l129 -86l4 -6l-118 68zM483 1182l119 -68l21 -39l-119 70zM516 92v27l129 -74v-27zM516 152v24l129 -74v-24zM516 209v27l129 -74v-27zM530 1098l119 -70l21 -39l-119 70zM578 1012l118 -70l21 -37l-119 68z M625 926l118 -68l23 -39l-119 68zM672 842l119 -70l22 -39l-119 70zM721 756l119 -70l20 -37l-119 68zM768 670l119 -68l20 -39l-119 68zM813 1081h45l68 -39v-26zM815 584l111 -64v-24l-90 51zM862 500l64 -37v-27l-43 25zM909 414l17 -8v-19zM913 1081h13v-6zM920 92h45 l147 -86h-45zM1020 92h45l147 -86h-45zM1110 98v27l127 -74v-26zM1110 156v26l127 -73v-27zM1110 215v25l127 -74v-25zM1110 272v27l127 -74v-26zM1110 330v26l127 -73v-27zM1110 389v25l127 -74v-27zM1110 446v27l127 -74v-26zM1110 504v26l127 -73v-27zM1110 563v25 l127 -74v-27zM1110 621v26l127 -76v-24zM1110 678v27l127 -74v-27zM1110 735v27l127 -74v-26zM1110 795v24l127 -74v-24zM1110 852v27l127 -74v-27zM1110 909v27l127 -74v-26zM1110 969v24l127 -73v-25zM1110 1026v27l127 -74v-27zM1114 1081h45l148 -86h-45zM1204 1087v25 l129 -74v-24zM1204 1145v26l129 -73v-27zM1204 1202v27l129 -74v-27z" />
<glyph unicode="O" horiz-adv-x="1359" d="M92 672q0 116 38.5 221.5t107 184.5t170.5 126t221 47q158 0 281.5 -79.5t188 -211t64.5 -288.5q0 -155 -65 -286.5t-188.5 -212.5t-280.5 -81q-158 0 -282.5 80.5t-189.5 212t-65 287.5zM244 672q0 -115 44 -214.5t133.5 -164t207.5 -64.5q88 0 161.5 37.5t121 100 t74 141.5t26.5 164q0 84 -26.5 163.5t-74 142t-121 100.5t-161.5 38q-89 0 -163 -37.5t-121.5 -100t-74 -142t-26.5 -164.5zM264 641v27l129 -74v-27zM266 698v25l131 -74l-4 -24zM268 608l127 -73l2 -29l-127 74zM270 754l4 22l132 -74l-5 -24zM279 543l124 -72l9 -31 l-125 72q-1 5 -4 15.5t-4 15.5zM283 805l6 22l131 -75q-1 -3 -6 -23zM299 854l8 20l131 -75l-8 -21zM303 471l123 -70q8 -24 14 -34l-118 67q-3 6 -9.5 18.5t-9.5 18.5zM319 899l11 21l133 -78l-12 -19zM336 154q19 -11 54 -27.5t50 -24.5l172 -100q-44 12 -100.5 42.5 t-82.5 47.5t-93 62zM344 942l14 19l134 -78l-13 -17zM356 383l113 -66q18 -24 41 -47q-94 38 -154 113zM377 983l16 16l135 -77l-16 -17zM414 1018l20 14l137 -78l-20 -14zM461 1051q4 2 11 6t11 6l140 -80q-4 -2 -12.5 -6t-12.5 -6zM516 1075q5 2 15.5 5t15.5 5l141 -84 q-5 -1 -15.5 -3t-15.5 -3zM539 78q27 -6 55 -6l149 -86q-33 0 -51 2zM588 1092q14 2 41 2h2l149 -86h-47zM651 72q27 0 39 2l146 -84q-6 -1 -19.5 -2t-19.5 -2zM698 1087q103 -24 176 -100q-7 0 -81.5 43.5t-94.5 56.5zM735 80l33 8l141 -82l-30 -8zM805 98l26 11l140 -80 l-27 -13zM862 123l25 12l137 -80l-23 -12zM913 152l23 12l137 -78l-20 -14zM961 182l18 15l135 -78l-18 -17zM999 217l17 16l135 -77l-14 -17zM1036 254l15 18l135 -77l-15 -19zM1036 1092q15 -8 37 -20.5t30 -17t21.5 -13.5t21 -16t18 -18.5t22.5 -27.5l-113 65 q-29 39 -37 48zM1067 293l12 20l135 -77l-12 -19zM1096 336l10 20l133 -77l-10 -21zM1104 993l119 -67q9 -14 20 -39l-121 69q-4 13 -18 37zM1118 381l10 20l134 -77l-11 -21zM1139 426l8 23l131 -78l-6 -21zM1141 915l123 -71q2 -5 6 -16.5t6 -16.5l-123 72zM1157 475l6 23 l129 -76l-4 -23zM1163 844l125 -72l8 -31l-125 72zM1169 524l5 25l131 -76l-5 -22zM1178 578l4 24l129 -76l-2 -24zM1178 778l125 -73l4 -27l-127 72zM1184 633v24l129 -73v-17v-10zM1184 690v27l127 -74l2 -27z" />
<glyph unicode="P" horiz-adv-x="1116" d="M113 92h30l150 -86h-45q-60 32 -135 86zM113 1081h24l80 -45v-24zM133 115v125h107v862h-107v129h451q151 0 247.5 -78t96.5 -225q0 -91 -51 -160.5t-128.5 -103t-166.5 -33.5h-199v-391h113v-125h-363zM193 1081h24v-14zM199 92h45l149 -86h-45zM299 92h47l148 -86h-45z M383 752h201q86 0 139 46t53 130q0 174 -211 174h-182v-350zM399 92h47l148 -86h-45zM406 264v25l47 -27h-45zM406 322v26l126 -74v-1v-1v-1v-1v-1v-1v-1v-1v-1v-1v-1v-1v-1v-1v-10l39 -25l-55 31v6h-8zM406 379v27l126 -74v-27zM406 438v25l126 -74v-24zM406 496v26 l126 -73v-27zM406 553v27l126 -74v-27zM406 784v27l65 -39h-45zM406 844v24l126 -73v-23h-6zM406 901v27l126 -74v-27zM406 958v27l126 -74v-26zM406 1018v24l126 -73v-25zM406 1075v6h32l150 -86h-45zM408 610h45l149 -86h-45zM494 1081h45l149 -86h-45zM502 92h14v17 l129 -74v-27zM508 610h45l149 -86h-45zM516 141v27l129 -76v-24zM516 199v26l129 -73v-27zM596 1081q116 -12 147 -86zM608 610q11 0 39 4l144 -84q-24 -4 -37 -4zM688 623q22 4 31 8l141 -82q-9 -4 -31 -8zM752 643l24 12l139 -80l-24 -12zM805 672l20 12l138 -78l-21 -14z M848 702l16 17l135 -78l-16 -16zM883 741l14 19l133 -78l-12 -18zM903 1104l115 -68q8 -10 26 -41l-120 70q-9 21 -21 39zM911 782l11 21l133 -76q-1 -6 -11 -20zM932 829l8 21l131 -76l-6 -22zM938 1026l123 -72q4 -10 8 -30l-125 71q-1 5 -3 15.5t-3 15.5zM946 879l2 24 l129 -74l-2 -24zM948 961l127 -72l2 -29l-127 74z" />
<glyph unicode="Q" horiz-adv-x="1366" d="M90 672q0 116 38.5 221.5t107 184.5t170.5 126t221 47q158 0 281.5 -79.5t188 -211t64.5 -288.5q0 -142 -55.5 -266t-164 -208.5t-249.5 -101.5q28 -8 108 -49t128 -41q45 0 77 21.5t42 62.5l112 -49q-17 -75 -84 -121.5t-147 -46.5q-56 0 -113 25t-108.5 50t-94.5 25 q-34 0 -61 -8v131q-140 19 -246.5 104t-160.5 208t-54 264zM242 672q0 -115 44 -214.5t133.5 -164t207.5 -64.5q88 0 161.5 37.5t121 100t74 141.5t26.5 164q0 84 -26.5 163.5t-74 142t-121 100.5t-161.5 38q-89 0 -163 -37.5t-121.5 -100t-74 -142t-26.5 -164.5zM262 664 l129 -74v24l-129 76v-26zM264 631l127 -74l2 -27l-127 74zM264 721l4 24l129 -75l-4 -25zM272 569l125 -73l6 -29l-124 72zM272 774l4 23l132 -76l-5 -23zM285 823q4 18 8 23l131 -76l-8 -22zM291 500l123 -72q1 -2 4.5 -14.5t7.5 -18.5l-123 70q-1 2 -6 15t-6 20zM303 872 l10 21l131 -78l-8 -20zM326 918l12 18l133 -78l-12 -18zM328 420l118 -68q14 -24 25 -41q-15 9 -38 20.5t-33 17.5t-24.5 16.5t-25.5 23.5t-22 31zM354 958q8 12 15 19l135 -78q-3 -3 -8.5 -9t-8.5 -9zM387 997q3 2 9.5 7.5t9.5 7.5l135 -78l-17 -16zM420 109q6 -2 50 -14 t60 -23v-27zM428 1030l23 14l137 -79l-23 -13zM477 1061q13 7 27 10l139 -80q-5 -2 -14 -5.5t-13 -4.5zM530 -63l23 6l141 -82q-5 -1 -15 -4t-15 -4q-76 42 -134 84zM539 1083q6 1 17 3.5t17 3.5l144 -82l-35 -7zM592 -49q8 2 20 2q5 0 14 -1t13 -1l168 -98q-36 14 -60 14 h-6h-2zM621 1094h6q29 0 45 -2l157 -93q-45 9 -59 9zM772 88l19 6l114 -65q-14 2 -27.5 6t-30 12t-23.5 11.5t-28.5 16t-23.5 13.5zM825 106l27 13l133 -78q-13 -7 -27 -10zM844 -135q29 -9 63 -12l150 -86q-17 0 -53 4zM881 133l22 12l117 -67q-2 -3 -6 -9.5t-6 -9.5z M930 162l20 14l135 -78v-2l-53 25l-4 -15zM961 -145q6 1 17 3t17 3l142 -82q-9 -4 -31 -8zM973 195l18 16l135 -78l-16 -16zM981 1145q99 -60 137 -95q15 -13 29 -28l-107 61q-24 30 -59 62zM1012 231l16 17l133 -78l-14 -16zM1030 -129q15 6 27 12l139 -80q-4 -2 -12.5 -6 t-12.5 -6zM1047 268l12 19l135 -78l-14 -16zM1075 309l12 21l134 -78l-11 -19zM1081 1028l115 -67q18 -21 29 -41l-119 69q-4 6 -12.5 19.5t-12.5 19.5zM1083 -100l21 14l135 -78q-3 -3 -9 -8t-9 -8zM1102 352l10 21l133 -76l-10 -21zM1124 -66l15 17l135 -78 q-8 -12 -14 -16zM1124 397l9 21l133 -76l-9 -20zM1126 944l121 -70l17 -34l-123 69zM1143 444l8 23l131 -76l-6 -22zM1155 -27q6 9 10 21l133 -76q-2 -3 -5 -10t-5 -10zM1155 870l123 -71l10 -31l-125 72zM1159 494l6 22l131 -76l-6 -22zM1171 545l5 24l129 -75l-5 -25z M1171 803l125 -72l7 -31l-127 74zM1176 20l6 23q11 -7 58 -33t71 -43q-1 -4 -2 -11t-2 -11zM1180 598l2 25l129 -74l-2 -25zM1180 739l127 -73l2 -27l-127 74zM1182 653v27l129 -74v-20v-6z" />
<glyph unicode="R" horiz-adv-x="1150" d="M78 1081h45l41 -24v-25zM80 115v125h106v862h-106v129h465q149 0 246.5 -78t97.5 -225q0 -87 -58.5 -160t-142.5 -102q45 -21 77.5 -68t45.5 -100l63 -244h97v-139h-217l-82 338q-22 87 -68 132.5t-131 45.5h-143v-391h112v-125h-362zM84 92h45l147 -86h-45zM184 92h45 l148 -86h-45zM285 92h45l147 -86h-45zM330 752h215q86 0 138 45.5t52 130.5q0 174 -209 174h-196v-350zM352 287v24l86 -49h-45zM352 344v27l127 -76v-25zM352 401v27l127 -74v-26zM352 459v26l127 -73v-27zM352 518v25l127 -74v-25zM352 575v27l133 -78h-6v-22zM352 772v4 l4 -4h-4zM352 807v27l105 -62h-45zM352 866v25l127 -74v-26zM352 924v26l127 -76v-24zM352 981v27l127 -74v-27zM352 1038v27l127 -74v-26zM379 1081h45l147 -86h-45zM385 92h45l148 -86h-46zM393 610h45l148 -86h-45zM463 104v27l129 -74v-26zM463 164v24l129 -73v-25z M463 221v27l129 -74v-27zM479 1081h45l150 -86h-47zM496 608q75 -6 116 -67zM588 1077q72 -14 104 -59zM733 662l8 4l140 -80l-19 -11q15 -10 21 -16l-109 62q-18 23 -41 41zM768 682q5 2 12 7.5t8 6.5l138 -78q-1 -1 -21 -16zM776 66l103 -60h-13zM786 92h45l148 -86h-45z M807 571l119 -69q15 -30 18 -37l-123 72q-6 18 -14 34zM811 717l16 16l136 -78l-17 -18zM834 498l124 -72q1 -5 4.5 -15.5t4.5 -15.5l-125 72zM844 1128q14 -8 37.5 -20t34 -18.5t26 -17.5t27 -23.5t22.5 -30.5l-119 67q-15 30 -28 43zM846 754q8 12 14 18l133 -78l-12 -18z M852 430l123 -74l8 -30l-125 73zM868 360l125 -71l4 -19l117 -75l-123 69v10h-18l-96 56zM874 797l11 18l131 -76l-10 -20zM885 293l33 -19h-27zM887 92h45l147 -86h-45zM891 1042l123 -69q2 -5 6 -16.5t6 -16.5l-125 72q-2 5 -5 15t-5 15zM895 842l6 22l131 -76l-6 -22z M907 893q0 4 1 12.5t1 12.5l129 -74q0 -19 -2 -27zM907 977l127 -74q0 -4 1 -13t1 -13l-127 71zM987 92h6v23l127 -74v-27zM991 174l129 -74v-26l-127 73zM991 205v26l129 -73v-27z" />
<glyph unicode="S" horiz-adv-x="1132" d="M90 301h45l4 -2q5 -15 15 -35zM96 322v127h187q0 -115 57 -166.5t176 -51.5q92 0 154.5 43.5t62.5 131.5q0 47 -20.5 81t-55 55t-79.5 36.5t-94.5 29t-99 28.5t-94.5 39t-79.5 56.5t-55 85.5t-20.5 121q0 77 32.5 137.5t87 97t120.5 55.5t139 19q109 0 194 -49.5 t134 -144.5h53v-125h-180q0 86 -57.5 134t-147.5 48q-55 0 -103 -14.5t-84 -52.5t-36 -95t33.5 -95.5t86.5 -60.5t117.5 -40t129 -41.5t117.5 -56.5t86.5 -94t33.5 -146q0 -101 -56 -176.5t-142 -111.5t-185 -36q-282 0 -354 232h-58zM252 672l6 -4q106 -71 160 -98.5 t151 -55.5l-166 96q-7 4 -59.5 22t-77.5 32zM303 467v4l39 -25zM305 408v26l127 -74v-26zM309 375l127 -74q0 -17 6 -29l-123 70q-6 10 -10 33zM309 928v20v6l129 -75q-2 -8 -2 -25zM313 983q3 12 9 21l133 -76q-8 -12 -11 -21zM317 891l125 -72q0 -8 4 -16q-38 14 -53 19.5 t-39 24t-37 44.5zM338 1028l16 16l138 -79q-6 -4 -19 -17zM358 88q31 -11 72 -14l152 -88q-31 2 -63 13t-51 22t-56 34t-54 33zM381 1061q15 7 25 10l141 -80q-4 -1 -13.5 -4.5t-13.5 -5.5zM442 1081q7 2 21.5 4t15.5 2l148 -86q-27 0 -41 -2zM492 70q22 -3 45 0l145 -86 h-41zM512 580q136 -39 180 -103q-7 0 -83.5 45t-96.5 58zM537 1087q101 -14 143 -83zM584 74q6 1 17 3t17 3l144 -82q-13 -4 -35 -8zM655 90q8 2 29 10l139 -82q-16 -8 -26 -10zM696 903l146 -84h-19zM715 113l24 12l138 -80l-23 -12zM750 905h45l147 -86h-45zM766 141 l20 17l138 -80l-21 -15zM795 664q14 -9 46.5 -30.5t56.5 -37.5t44 -33l-100 58q-20 23 -47 43zM809 176l16 17l136 -78l-17 -17zM825 1120l78 -45h-45l-6 2q-15 26 -27 43zM844 213l12 18l135 -77l-14 -19zM850 905h45l147 -86h-45zM870 256l13 18l131 -75q-4 -12 -10 -21z M879 567l118 -67q16 -32 19 -39l-123 71q-2 10 -14 35zM893 301l8 21l131 -74l-8 -23zM905 494l125 -72q1 -5 3 -15.5t3 -15.5l-127 74q-1 5 -2 15t-2 14zM907 350l4 25l129 -76l-4 -23zM911 432l129 -74v-26l-127 74q0 16 -2 26zM918 924v26l129 -73v-27zM918 983v25 l129 -74v-27zM918 1040v27q105 -61 129 -78v-22z" />
<glyph unicode="T" horiz-adv-x="1363" d="M98 913h13l147 -84h-33zM119 936v295h995v-295h-149v174h-295v-870h114v-125h-362v125h102v870h-254v-174h-151zM166 913h45l147 -84h-45zM266 913h25v13l129 -74v-23h-6zM291 958v25l129 -74v-24zM291 1016v26l129 -73v-27zM291 1073v14h20l148 -83h-39v-5zM367 1087h45 l92 -51v-26zM401 92h29l148 -86h-46q-20 10 -41.5 24t-49.5 34t-40 28zM467 1087h37v-20zM485 92h45l148 -86h-45zM586 92h45l147 -86h-45zM686 92h45l148 -86h-45zM690 264v25l49 -27h-45zM690 322v26l129 -74v-22l58 -37l-72 41v6h-10zM690 379v27l129 -74v-27zM690 438 v25l129 -74v-27zM690 496v26l129 -73v-27zM690 553v27l129 -74v-27zM690 612v25l129 -74v-26zM690 670v26l129 -75v-25zM690 727v27l129 -74v-27zM690 784v27l129 -74v-26zM690 844v24l129 -73v-25zM690 901v27l129 -74v-27zM690 958v27l129 -74v-26zM690 1018v24l129 -73 v-25zM690 1075v12h23l149 -83h-43v-3zM768 1087h45l129 -73v-10h-24zM786 92h19v14l129 -73v-25zM805 139v27l129 -74v-26zM805 197v26l129 -73v-27zM868 1087h45l29 -16v-24zM969 913h45l149 -84h-47zM1069 913h45l150 -84h-47zM1137 934v27l127 -74v-27zM1137 991v27 l127 -74v-26zM1137 1051v24l127 -74v-26zM1137 1108v27l127 -76v-25zM1137 1165v27l127 -74v-26zM1137 1223v26q30 -15 127 -84v-16z" />
<glyph unicode="U" horiz-adv-x="1413" d="M111 1102v129h360v-129h-115v-518q0 -58 9 -108t29.5 -95t52 -76.5t80 -50t110.5 -18.5q81 0 138.5 25.5t89 74t45.5 109t14 139.5v518h-121v129h362v-129h-100v-502q0 -102 -27 -191t-79 -159.5t-135.5 -111t-188.5 -40.5q-102 0 -184 39.5t-133 108t-78 155.5t-27 185 v516h-102zM135 1081h45l10 -6v-26zM150 1040l40 -22v-4zM379 561l129 -74v-26l-127 74zM379 594v24l127 -73v-27zM379 651v27l127 -76v-24zM379 709v26l127 -73v-27zM379 766v27l127 -74v-27zM379 825v25l127 -74v-24zM379 883v26l127 -73v-27zM379 940v27l127 -74v-27z M379 999v25l127 -74v-26zM379 1057v24h2l147 -86h-22v-12zM383 500l127 -74l4 -27l-127 72zM397 434l125 -72q1 -5 10 -32l-122 71q-10 16 -13 33zM408 139l217 -127q-28 10 -60.5 26.5t-49.5 27.5t-57.5 39t-49.5 34zM432 356q39 -58 100 -82l31 -8q-2 3 -6 10.5t-6 10.5z M436 1081h45l140 -80v-6h-37zM494 1106v27l127 -74v-27zM494 1165v25l127 -74v-26zM494 1223v26q46 -27 127 -84v-16zM557 84q9 -1 27.5 -3t27.5 -3l150 -86q-19 0 -51 4zM666 80q7 0 20 1t19 1l143 -82q-30 -5 -35 -6zM745 90l31 10l142 -82l-29 -10zM782 1081l121 -69v-11 zM811 113q10 3 25 10l139 -80l-25 -12zM838 1081h45l20 -12v-25zM864 139l21 13l137 -78l-21 -15zM909 170l19 16l135 -80l-16 -14zM948 205q3 3 8.5 9t8.5 9l135 -78q-3 -3 -8.5 -9t-8.5 -9zM981 244l14 18l133 -76l-12 -18zM1010 287l10 18l133 -76l-10 -20zM1032 332 l10 20l132 -76l-9 -22zM1053 377l6 22l131 -75l-6 -23zM1067 428l6 23l129 -76l-4 -23zM1077 479l4 25l129 -76l-2 -25zM1083 532l2 27l129 -76l-2 -24zM1087 590v26l127 -75v-25zM1087 647v27l127 -74v-27zM1087 707v24l127 -74v-26zM1087 764v27l127 -76v-25zM1087 821v27 l127 -74v-26zM1087 879v26l127 -74v-26zM1087 938v25l127 -74v-25zM1087 995v27l127 -74v-26zM1087 1053v26l144 -84h-17v-16zM1139 1081h45l131 -75v-11h-29zM1186 1112v27l129 -76v-25zM1186 1169v27l129 -74v-26zM1186 1227v24l129 -86v-12z" />
<glyph unicode="V" horiz-adv-x="1427" d="M68 1081l127 -86h8l-8 21l-113 65h-14zM88 1102v129h363v-129h-99l287 -860l307 860h-104v129h362v-129h-96l-363 -987h-202l-357 987h-98zM137 1081h35l8 -24zM383 1081l149 -86h-22l6 -16l-123 72zM406 1010l124 -72l11 -31l-123 72zM430 938l123 -72l12 -30l-125 71z M438 1081h33v6l129 -73v-19h-12zM455 866l123 -71l10 -31l-123 72zM471 1120v27l129 -74v-26zM471 1178v26l129 -74v-26zM471 1237v14l129 -86v-2zM477 795l125 -72l10 -31l-123 70zM502 723l123 -72l12 -30l-125 69zM526 651l123 -71l10 -31l-122 69zM545 92h45l149 -86 h-45zM549 580l125 -72l10 -31l-123 70zM573 508l115 -66l-8 -22l-96 55zM598 436l74 -43l-8 -20l-56 30zM621 365l32 -19l-6 -22l-14 8zM645 92h45l150 -86h-45zM745 92h15l6 14l131 -75l-8 -21zM776 133l8 23l131 -76l-8 -23zM793 182l8 21l131 -76l-6 -23zM811 229l8 21 l131 -76l-8 -20zM827 276l9 23l131 -76l-6 -22zM840 1081h45l26 -14l-8 -23zM846 326l8 20l131 -76l-8 -20zM862 373l8 22l134 -78l-9 -20zM881 420l8 22l131 -75l-8 -23zM899 469l6 20l133 -75l-8 -21zM915 516l9 23l131 -76l-8 -23zM934 565l6 21l133 -76l-8 -23zM950 612 l8 21l132 -76l-9 -20zM969 659l8 23l131 -76l-8 -22zM985 709l8 20l131 -76l-6 -22zM1004 756l8 20l131 -76l-8 -20zM1020 803l8 22l131 -75l-6 -23zM1038 852l9 20l131 -75l-9 -21zM1055 899l8 23l133 -78l-8 -21zM1073 946l8 23l131 -76l-8 -23zM1090 995l8 21l133 -76 l-8 -20zM1108 1042l8 23l131 -76l-8 -22zM1141 1081h45l149 -86h-45zM1225 1092v26l129 -76v-24zM1225 1149v27l129 -74v-27zM1225 1206v27l129 -74v-26z" />
<glyph unicode="W" horiz-adv-x="2226" d="M98 1079l127 -86h4l-2 13zM119 1100v129h362v-129h-96l270 -856l285 985h219l303 -985l277 856h-111v129h361v-129h-97l-319 -987h-225l-304 972l-278 -972h-223l-326 987h-98zM154 1079h45l4 -2l10 -33zM416 1069l131 -76h-6l10 -26l-125 71zM438 999l125 -71l10 -33 l-124 72zM455 1079h45l131 -75v-11h-29zM461 928l125 -72l8 -31l-123 70zM483 856l123 -70l10 -32l-122 71zM502 1110v25l129 -74v-25zM502 1167v27l129 -74v-26zM502 1225v24l129 -86v-12zM506 786l123 -71l10 -33l-123 72zM528 715l123 -72l11 -31l-123 72zM551 645 l123 -72l10 -32l-123 71zM561 90h45l150 -86h-45zM573 573l123 -71l6 -19l-4 -8l-116 68zM594 502l98 -56l-8 -22l-80 47zM616 432l62 -35l-8 -22l-43 24zM639 360l25 -12l-9 -22l-6 4zM662 90h45l149 -86h-45zM762 90h20l4 12l132 -75l-7 -23zM795 129l6 23l131 -76l-6 -21 zM809 180l6 23l131 -76l-6 -23zM823 229l6 23l132 -76l-7 -22zM838 279l6 22l131 -76l-6 -22zM850 330l8 22l131 -76l-8 -22zM864 379l8 22l132 -75l-9 -23zM879 428l8 23l131 -76l-8 -23zM893 477l8 23l129 -76l-6 -23zM907 528l6 23l131 -76l-6 -22zM922 578l6 22l131 -76 l-6 -22zM936 627l6 22l131 -76l-6 -22zM950 678l6 20l131 -75l-6 -21zM965 727l6 23l131 -76l-6 -23zM979 776l6 23l131 -76l-6 -23zM993 825l6 23l119 -68l8 -26l-2 -4zM1008 877l6 22l82 -47l10 -33zM1022 926l6 22l45 -26l10 -31zM1036 975l6 22l11 -4l8 -32zM1176 1249 l73 -49l-71 41zM1190 1202l123 -72l10 -30l-123 71zM1212 1133l123 -72l11 -33l-125 72zM1233 1061l125 -72l8 -31l-123 72zM1255 991l123 -71l11 -31l-125 69zM1276 922l125 -72l10 -33l-125 72zM1298 850l123 -72l11 -30l-123 71zM1321 780l123 -71l10 -33l-125 72z M1341 709l125 -72l9 -31l-123 72zM1364 90h45l150 -86h-46zM1364 639l123 -72l10 -32l-123 71zM1384 567l11 -30l118 -68l3 6l-7 21zM1407 498l98 -56l-8 -22l-80 47zM1430 428l59 -35l-8 -22l-43 24zM1450 356l23 -12l-7 -22l-6 4zM1464 90h45l150 -86h-45zM1565 90h24 l4 10l131 -75l-6 -21h-4zM1602 127l6 23l131 -76l-6 -23zM1616 176l8 23l131 -76l-6 -23zM1618 1071l76 -43l-2 -6v2zM1632 225l8 23l132 -76l-9 -22zM1649 274l6 23l131 -76l-6 -22zM1659 1079h45l4 -2l-6 -22zM1665 324l6 20l131 -76l-6 -20zM1679 373l9 20l131 -76 l-9 -20zM1696 420l6 22l133 -75l-8 -23zM1712 469l6 23l131 -76l-6 -23zM1726 518l9 23l131 -76l-8 -23zM1743 567l6 23l133 -76l-8 -22zM1759 616l6 23l131 -76l-6 -22zM1774 666l8 20l131 -76l-6 -20zM1790 715l8 20l131 -76l-8 -20zM1806 762l6 22l132 -75l-7 -23z M1821 811l8 23l131 -76l-6 -23zM1837 860l8 23l131 -76l-8 -23zM1853 909l7 23l131 -76l-6 -22zM1870 958l6 23l131 -76l-6 -22zM1884 1008l8 20l131 -76l-8 -20zM1901 1057l6 20l147 -84h-18l-4 -12zM1960 1079h45l135 -78v-8h-31zM2011 1108v27l129 -74v-27zM2011 1165v27 l129 -74v-26zM2011 1225v24l129 -86v-12z" />
<glyph unicode="X" horiz-adv-x="1275" d="M96 113v125h74l317 444l-299 418h-92v129h363v-129h-107l217 -305l219 305h-116v129h362v-129h-82l-303 -418l316 -444h69v-125h-362v125h135l-238 333l-239 -333h129v-125h-363zM109 1079h45l41 -24l30 -43zM115 90h45l147 -86h-45zM186 16l21 -12h-2zM215 90h45 l148 -86h-46zM315 90h45l148 -86h-45zM387 281l12 18l70 -39h-45zM410 1079h45l147 -86h-45zM416 90h45l147 -86h-45zM416 322l14 18l133 -78l-12 -18zM422 1040l115 -65l30 -45l-114 65zM446 362l13 19l133 -78l-12 -18zM475 403l12 19l136 -78l-15 -18zM481 111v26 l127 -76v-24zM481 168v27l127 -74v-27zM481 225v27q79 -42 127 -78v-22zM481 1096v26l127 -73v-27zM481 1153v27l127 -74v-27zM481 1212v25l127 -74v-26zM492 942l110 -63l-12 -19l-68 37zM504 444l14 19l133 -78l-12 -18zM535 485l12 19l76 -43l30 -45zM561 844l12 -6 l-4 -7zM563 526l6 9l13 -19zM651 90h11l147 -86h-31zM651 1079h4l66 -37l-4 -6zM682 690l12 19l135 -78l-14 -19zM700 647l115 -65l31 -45l-115 67zM711 731l14 19l133 -78l-12 -19zM711 1079h37l-13 -14zM717 90h45l147 -86h-45zM741 772l13 19l135 -78l-15 -19zM770 549 l115 -66l30 -45l-114 68zM770 813l14 18l134 -77l-13 -19zM801 854l12 18l133 -77l-12 -19zM817 90h45l148 -86h-45zM829 895l13 18l135 -77l-14 -19zM840 451l114 -66l31 -45l-115 68zM858 936l14 18l134 -77l-13 -19zM889 977l12 18l135 -77l-14 -19zM909 352l115 -65 l18 -27h-16l-84 49zM918 90h45l147 -86h-45zM918 1018l14 18l133 -78l-12 -18zM948 1059l13 18l143 -84h-12l-11 -12zM1012 1079h43l129 -73v-13h-25zM1018 90h37v4l129 -74v-16h-19zM1055 127v25l129 -74v-25zM1055 184v27l129 -74v-26zM1055 242v18l129 -86v-6zM1055 1112 v27l129 -76v-25zM1055 1169v27l129 -74v-26zM1055 1227v22l129 -86v-10z" />
<glyph unicode="Y" horiz-adv-x="1255" d="M78 1079h35l96 -55l18 -31h-12q-87 50 -137 86zM98 1100v129h363v-129h-105l209 -359l226 359h-117v129h362v-129h-96l-313 -475v-387h114v-125h-362v125h102v391l-295 471h-88zM168 1079h6l4 -6zM375 90h45l149 -86h-45zM393 1079h21l147 -86h-41l2 -2l-116 68z M432 1010l119 -68l22 -39l-116 68zM469 1079h14v19l127 -74v-27zM475 90h45l150 -86h-45zM483 924l119 -70l4 -6l-10 -17l-88 52zM483 1128v27l127 -74v-26zM483 1188v24l127 -73v-25zM483 1245v4l45 -30zM535 836l47 -27l-13 -21l-10 9zM575 90h46l149 -86h-45zM649 281v26 l80 -47h-45zM649 338v27l127 -74v-27zM649 395v27l127 -74v-26zM649 455v24l127 -73v-25zM649 512v27l127 -74v-27zM649 569v27l127 -74v-26zM653 625l13 20l133 -78l-13 -18zM670 1079h45l26 -14l-12 -21zM676 90h45l149 -86h-45zM680 668l14 18l133 -78l-12 -18zM709 709 l12 20l133 -78l-12 -18zM735 752l15 18l133 -78l-13 -18zM764 98v27l127 -76v-24zM764 156v26l127 -73v-27zM764 213v27l127 -74v-27zM764 793l12 20l133 -78l-12 -18zM793 836l12 18l133 -78l-12 -18zM819 877l12 20l134 -78l-13 -18zM848 920l12 18l133 -78l-12 -18z M874 961l13 20l133 -78l-12 -18zM903 1004l12 18l134 -78l-13 -18zM930 1044l12 21l133 -78l-12 -18zM971 1079h45l149 -86h-45zM1057 1087v27l129 -74v-26zM1057 1145v26l129 -73v-27zM1057 1204v25l129 -74v-27z" />
<glyph unicode="Z" horiz-adv-x="1185" d="M88 90h18l150 -86h-41zM100 891h27l147 -86h-45q-26 14 -75 48.5t-54 37.5zM109 113v166l663 821h-506v-189h-145v318h807v-166l-672 -825h522v186h146v-311h-815zM162 90h45l149 -86h-45zM182 891h45l148 -86h-45zM262 90h45l150 -86h-45zM283 891h4v22l129 -73v-27z M287 946v25l129 -74v-25zM287 1004v26l129 -74v-26zM287 1061v18h14l150 -86h-35v-6zM301 260l4 6l10 -6h-14zM324 287l14 18l78 -45h-45zM354 328l17 16l133 -78l-6 -6h-27zM356 1079h45l150 -86h-45zM362 90h46l149 -86h-45zM387 367l14 16l136 -78l-15 -16zM420 406 l14 18l135 -78l-14 -18zM453 444l14 19l133 -78l-14 -18zM457 1079h45l149 -86h-45zM463 90h45l149 -86h-45zM483 485l15 17l135 -78l-15 -16zM516 524l14 17l136 -78l-15 -17zM549 563l14 19l133 -78l-14 -19zM557 1079h45l86 -49l-14 -18zM563 90h45l150 -86h-45zM580 602 l14 19l135 -78l-14 -19zM612 641l15 18l135 -77l-14 -17zM645 682l14 16l134 -77l-15 -17zM657 1079h45l17 -10l-14 -16zM664 90h45l149 -86h-45zM676 721l14 18l135 -77l-14 -19zM709 760l14 18l135 -78l-14 -18zM741 799l15 18l133 -78l-15 -16zM764 90h45l149 -86h-45z M772 840l14 16l136 -78l-15 -16zM805 879l14 18l135 -78l-14 -18zM838 918l14 18l135 -78l-16 -18zM864 90h45l150 -86h-45zM868 956l15 19l135 -78l-14 -18zM901 997l14 17l136 -78l-15 -16zM934 1036l14 19l129 -76v-8l-8 -13zM944 102v27l129 -76v-24zM944 160v26 l129 -73v-27zM944 217v27l129 -74v-27zM944 276v27l129 -76v-24zM944 334v26l129 -73v-27zM944 391v27l129 -74v-27zM948 1085v25l129 -74v-24zM948 1143v26l129 -73v-27zM948 1200v27l129 -74v-27z" />
<glyph unicode="[" />
<glyph unicode="\" />
<glyph unicode="]" />
<glyph unicode="^" horiz-adv-x="1069" d="M190 627h46l147 -86h-45zM195 647l297 582h83l297 -582h-106l-231 461l-236 -461h-104zM291 627h20l6 10l134 -78l-11 -18h-2zM330 662l10 18l133 -76l-10 -20zM352 705l10 20l134 -76l-11 -20zM375 750l10 20l133 -76l-10 -20zM397 795l13 20l131 -76l-11 -20zM422 840 l10 20l131 -78l-10 -18zM444 885l11 20l133 -78l-10 -20zM467 930l10 20l133 -78l-10 -20zM489 975l11 18l96 -53l18 -37zM512 1018l10 20l33 -18l18 -37zM600 1227l121 -70l18 -37l-121 70zM643 1145l119 -70l18 -37l-118 70zM684 1061l121 -68l18 -37l-121 68zM727 979 l119 -70l18 -37l-119 70zM768 897l121 -70l18 -36l-121 69zM793 627h45l147 -86h-45zM809 815l121 -70l18 -36l-119 69zM852 733l119 -69l20 -37l-121 69zM860 555l25 -14h-4zM893 627h14l-14 24l121 -69l18 -37z" />
<glyph unicode="_" />
<glyph unicode="`" horiz-adv-x="583" d="M139 915l129 -86l105 -36l4 6l-139 82zM166 928l121 372l116 -45l-170 -352zM254 897l12 25l131 -78l-12 -25zM274 942l13 25l133 -78l-12 -25zM297 987l12 25l133 -76l-12 -27zM319 1032l13 25l131 -76l-12 -25zM342 1077l10 25l133 -76l-12 -25zM362 1122l13 25 l133 -76l-12 -24zM385 1167l12 27l131 -78l-10 -24zM408 1214l12 25l131 -78l-12 -24zM428 1260l4 8l123 -82z" />
<glyph unicode="a" />
<glyph unicode="b" />
<glyph unicode="c" />
<glyph unicode="d" />
<glyph unicode="e" />
<glyph unicode="f" />
<glyph unicode="g" />
<glyph unicode="h" />
<glyph unicode="i" />
<glyph unicode="j" />
<glyph unicode="k" />
<glyph unicode="l" />
<glyph unicode="m" />
<glyph unicode="n" />
<glyph unicode="o" />
<glyph unicode="p" />
<glyph unicode="q" />
<glyph unicode="r" />
<glyph unicode="s" />
<glyph unicode="t" />
<glyph unicode="u" />
<glyph unicode="v" />
<glyph unicode="w" />
<glyph unicode="x" />
<glyph unicode="y" />
<glyph unicode="z" />
<glyph unicode="{" />
<glyph unicode="|" />
<glyph unicode="}" />
<glyph unicode="~" />
<glyph />
<glyph unicode="&#xa0;" />
<glyph unicode="&#xa1;" />
<glyph unicode="&#xa2;" />
<glyph unicode="&#xa3;" horiz-adv-x="1017" d="M123 582h45l147 -86h-45zM135 602v107h144q-48 128 -48 219q0 118 77 189t196 71q106 0 175 -69.5t66 -174.5v-16l-122 -8q-2 59 -32 103t-85 44q-64 0 -99.5 -36t-35.5 -99q0 -32 8 -68t25.5 -88t21.5 -67h205v-107h-172q35 -120 35 -151q0 -61 -29.5 -117t-79.5 -92 h358v-125h-587v125h80q118 65 118 204q0 63 -35 156h-184zM160 96h45l147 -86h-45zM223 582h45l45 -27q9 -24 11 -33zM260 96h45l148 -86h-45zM360 96h46l147 -86h-45zM393 913l129 -73q0 -19 2 -27l-127 74q-1 4 -2 13t-2 13zM393 946q0 9 4 25l131 -76q-5 -20 -6 -23z M408 848l122 -72l11 -31l-125 72zM408 995q7 14 12 19l137 -78q-10 -6 -16 -16zM428 778l84 -47h-45l-31 17zM444 1032q21 8 29 10l119 -69q4 -7 8 -29h-2l-2 12q-2 -1 -6 -2t-6 -2zM451 274q4 4 14 19l53 -31h-45zM461 96h45l147 -86h-45zM479 317l10 21l129 -76h-45z M492 567l124 -71l9 -31l-125 72zM500 362l8 23l129 -76l-6 -22zM510 500l125 -72q1 -5 3 -15.5t3 -15.5l-127 74q0 9 -4 29zM512 414q4 16 4 24l127 -73v-27zM524 582h45l148 -86h-45zM526 1044q21 -6 37 -22zM561 96h45l148 -86h-45zM602 897l19 2l147 -84l-37 -2zM625 582 h26v10l129 -74v-22h-8zM651 623v26l129 -74v-26zM651 682v25l129 -74v-27zM659 1163q6 -4 50.5 -32.5t71 -48.5t44.5 -38l-110 64q-16 23 -56 55zM662 96h45l147 -86h-45zM672 901l41 4l145 -86l-41 -2zM743 1061l121 -70q2 -6 7.5 -17.5t7.5 -17.5l-123 72q-2 5 -6.5 16.5 t-6.5 16.5zM762 96h2v25l129 -74v-27zM762 907h4v25l129 -76v-14v-11zM764 152v26l129 -74v-26zM764 211v25l129 -74v-25zM764 991l125 -73q4 -16 4 -29l-127 74q0 5 -1 14t-1 14z" />
<glyph unicode="&#xa5;" />
<glyph unicode="&#xa6;" />
<glyph unicode="&#xa7;" />
<glyph unicode="&#xa8;" horiz-adv-x="583" d="M139 915l129 -86l105 -36l4 6l-139 82zM166 928l121 372l116 -45l-170 -352zM254 897l12 25l131 -78l-12 -25zM274 942l13 25l133 -78l-12 -25zM297 987l12 25l133 -76l-12 -27zM319 1032l13 25l131 -76l-12 -25zM342 1077l10 25l133 -76l-12 -25zM362 1122l13 25 l133 -76l-12 -24zM385 1167l12 27l131 -78l-10 -24zM408 1214l12 25l131 -78l-12 -24zM428 1260l4 8l123 -82z" />
<glyph unicode="&#xa9;" />
<glyph unicode="&#xaa;" />
<glyph unicode="&#xab;" />
<glyph unicode="&#xac;" />
<glyph unicode="&#xad;" horiz-adv-x="751" d="M172 553h18l146 -84h-37zM193 575v82h356v-82h-356zM233 553h56l147 -84h-55zM334 553l147 -84h56l-148 84h-55zM434 553h55l148 -84h-55zM535 553h36v10l127 -74v-20h-16zM571 590v33l127 -76v-31zM571 649v29l127 -86v-19z" />
<glyph unicode="&#xae;" />
<glyph unicode="&#xb0;" />
<glyph unicode="&#xb1;" />
<glyph unicode="&#xb2;" />
<glyph unicode="&#xb3;" />
<glyph unicode="&#xb4;" horiz-adv-x="583" d="M139 915l129 -86l105 -36l4 6l-139 82zM166 928l121 372l116 -45l-170 -352zM254 897l12 25l131 -78l-12 -25zM274 942l13 25l133 -78l-12 -25zM297 987l12 25l133 -76l-12 -27zM319 1032l13 25l131 -76l-12 -25zM342 1077l10 25l133 -76l-12 -25zM362 1122l13 25 l133 -76l-12 -24zM385 1167l12 27l131 -78l-10 -24zM408 1214l12 25l131 -78l-12 -24zM428 1260l4 8l123 -82z" />
<glyph unicode="&#xb5;" />
<glyph unicode="&#xb6;" />
<glyph unicode="&#xb9;" />
<glyph unicode="&#xba;" />
<glyph unicode="&#xbb;" />
<glyph unicode="&#xbc;" />
<glyph unicode="&#xbd;" />
<glyph unicode="&#xbe;" />
<glyph unicode="&#xbf;" />
<glyph unicode="&#xc0;" />
<glyph unicode="&#xc3;" />
<glyph unicode="&#xc4;" />
<glyph unicode="&#xc5;" />
<glyph unicode="&#xc6;" />
<glyph unicode="&#xc7;" />
<glyph unicode="&#xc9;" />
<glyph unicode="&#xd0;" />
<glyph unicode="&#xd1;" />
<glyph unicode="&#xd5;" />
<glyph unicode="&#xd6;" />
<glyph unicode="&#xd7;" />
<glyph unicode="&#xd8;" />
<glyph unicode="&#xdc;" />
<glyph unicode="&#xdd;" />
<glyph unicode="&#xde;" />
<glyph unicode="&#xdf;" />
<glyph unicode="&#xe0;" />
<glyph unicode="&#xe1;" />
<glyph unicode="&#xe2;" />
<glyph unicode="&#xe3;" />
<glyph unicode="&#xe4;" />
<glyph unicode="&#xe5;" />
<glyph unicode="&#xe6;" />
<glyph unicode="&#xe7;" />
<glyph unicode="&#xe8;" />
<glyph unicode="&#xe9;" />
<glyph unicode="&#xea;" />
<glyph unicode="&#xeb;" />
<glyph unicode="&#xec;" />
<glyph unicode="&#xed;" />
<glyph unicode="&#xee;" />
<glyph unicode="&#xef;" />
<glyph unicode="&#xf0;" />
<glyph unicode="&#xf1;" />
<glyph unicode="&#xf2;" />
<glyph unicode="&#xf3;" />
<glyph unicode="&#xf4;" />
<glyph unicode="&#xf5;" />
<glyph unicode="&#xf6;" />
<glyph unicode="&#xf7;" />
<glyph unicode="&#xf8;" />
<glyph unicode="&#xf9;" />
<glyph unicode="&#xfa;" />
<glyph unicode="&#xfb;" />
<glyph unicode="&#xfc;" />
<glyph unicode="&#xfd;" />
<glyph unicode="&#xfe;" />
<glyph unicode="&#xff;" />
<glyph unicode="&#x152;" />
<glyph unicode="&#x153;" />
<glyph unicode="&#x178;" />
<glyph unicode="&#x2000;" horiz-adv-x="732" />
<glyph unicode="&#x2001;" horiz-adv-x="1464" />
<glyph unicode="&#x2002;" horiz-adv-x="732" />
<glyph unicode="&#x2003;" horiz-adv-x="1464" />
<glyph unicode="&#x2004;" horiz-adv-x="488" />
<glyph unicode="&#x2005;" horiz-adv-x="366" />
<glyph unicode="&#x2006;" horiz-adv-x="244" />
<glyph unicode="&#x2007;" horiz-adv-x="244" />
<glyph unicode="&#x2008;" horiz-adv-x="183" />
<glyph unicode="&#x2009;" horiz-adv-x="292" />
<glyph unicode="&#x200a;" horiz-adv-x="81" />
<glyph unicode="&#x2010;" horiz-adv-x="751" d="M172 553h18l146 -84h-37zM193 575v82h356v-82h-356zM233 553h56l147 -84h-55zM334 553l147 -84h56l-148 84h-55zM434 553h55l148 -84h-55zM535 553h36v10l127 -74v-20h-16zM571 590v33l127 -76v-31zM571 649v29l127 -86v-19z" />
<glyph unicode="&#x2011;" horiz-adv-x="751" d="M172 553h18l146 -84h-37zM193 575v82h356v-82h-356zM233 553h56l147 -84h-55zM334 553l147 -84h56l-148 84h-55zM434 553h55l148 -84h-55zM535 553h36v10l127 -74v-20h-16zM571 590v33l127 -76v-31zM571 649v29l127 -86v-19z" />
<glyph unicode="&#x2012;" horiz-adv-x="751" d="M172 553h18l146 -84h-37zM193 575v82h356v-82h-356zM233 553h56l147 -84h-55zM334 553l147 -84h56l-148 84h-55zM434 553h55l148 -84h-55zM535 553h36v10l127 -74v-20h-16zM571 590v33l127 -76v-31zM571 649v29l127 -86v-19z" />
<glyph unicode="&#x2013;" horiz-adv-x="751" d="M172 553h18l146 -84h-37zM193 575v82h356v-82h-356zM233 553h56l147 -84h-55zM334 553l147 -84h56l-148 84h-55zM434 553h55l148 -84h-55zM535 553h36v10l127 -74v-20h-16zM571 590v33l127 -76v-31zM571 649v29l127 -86v-19z" />
<glyph unicode="&#x2014;" horiz-adv-x="751" d="M172 553h18l146 -84h-37zM193 575v82h356v-82h-356zM233 553h56l147 -84h-55zM334 553l147 -84h56l-148 84h-55zM434 553h55l148 -84h-55zM535 553h36v10l127 -74v-20h-16zM571 590v33l127 -76v-31zM571 649v29l127 -86v-19z" />
<glyph unicode="&#x2018;" horiz-adv-x="583" d="M139 915l129 -86l105 -36l4 6l-139 82zM166 928l121 372l116 -45l-170 -352zM254 897l12 25l131 -78l-12 -25zM274 942l13 25l133 -78l-12 -25zM297 987l12 25l133 -76l-12 -27zM319 1032l13 25l131 -76l-12 -25zM342 1077l10 25l133 -76l-12 -25zM362 1122l13 25 l133 -76l-12 -24zM385 1167l12 27l131 -78l-10 -24zM408 1214l12 25l131 -78l-12 -24zM428 1260l4 8l123 -82z" />
<glyph unicode="&#x2019;" horiz-adv-x="583" d="M139 915l129 -86l105 -36l4 6l-139 82zM166 928l121 372l116 -45l-170 -352zM254 897l12 25l131 -78l-12 -25zM274 942l13 25l133 -78l-12 -25zM297 987l12 25l133 -76l-12 -27zM319 1032l13 25l131 -76l-12 -25zM342 1077l10 25l133 -76l-12 -25zM362 1122l13 25 l133 -76l-12 -24zM385 1167l12 27l131 -78l-10 -24zM408 1214l12 25l131 -78l-12 -24zM428 1260l4 8l123 -82z" />
<glyph unicode="&#x201c;" horiz-adv-x="583" d="M139 915l129 -86l105 -36l4 6l-139 82zM166 928l121 372l116 -45l-170 -352zM254 897l12 25l131 -78l-12 -25zM274 942l13 25l133 -78l-12 -25zM297 987l12 25l133 -76l-12 -27zM319 1032l13 25l131 -76l-12 -25zM342 1077l10 25l133 -76l-12 -25zM362 1122l13 25 l133 -76l-12 -24zM385 1167l12 27l131 -78l-10 -24zM408 1214l12 25l131 -78l-12 -24zM428 1260l4 8l123 -82z" />
<glyph unicode="&#x201d;" horiz-adv-x="583" d="M139 915l129 -86l105 -36l4 6l-139 82zM166 928l121 372l116 -45l-170 -352zM254 897l12 25l131 -78l-12 -25zM274 942l13 25l133 -78l-12 -25zM297 987l12 25l133 -76l-12 -27zM319 1032l13 25l131 -76l-12 -25zM342 1077l10 25l133 -76l-12 -25zM362 1122l13 25 l133 -76l-12 -24zM385 1167l12 27l131 -78l-10 -24zM408 1214l12 25l131 -78l-12 -24zM428 1260l4 8l123 -82z" />
<glyph unicode="&#x2022;" />
<glyph unicode="&#x2026;" />
<glyph unicode="&#x202f;" horiz-adv-x="292" />
<glyph unicode="&#x2039;" />
<glyph unicode="&#x203a;" />
<glyph unicode="&#x205f;" horiz-adv-x="366" />
<glyph unicode="&#x20ac;" />
<glyph unicode="&#x2122;" />
<glyph unicode="&#x25fc;" horiz-adv-x="1024" d="M0 0z" />
<glyph unicode="&#xfb01;" />
<glyph unicode="&#xfb02;" />
</font>
</defs>
</svg>
